<mxfile host="Electron" agent="Mozilla/5.0 (Windows NT 10.0; Win64; x64) AppleWebKit/537.36 (KHTML, like Gecko) draw.io/26.2.2 Chrome/134.0.6998.178 Electron/35.1.2 Safari/537.36" version="26.2.2">
  <diagram name="Page-1" id="hcAD5YYzUpX3POO3dCWV">
    <mxGraphModel dx="949" dy="1506" grid="1" gridSize="10" guides="1" tooltips="1" connect="1" arrows="1" fold="1" page="1" pageScale="1" pageWidth="1100" pageHeight="850" math="0" shadow="0">
      <root>
        <mxCell id="0" />
        <mxCell id="1" parent="0" />
        <mxCell id="jzcKmIV3T17Fcgt4tWT3-1" value="ActiveVariables" style="shape=table;startSize=30;container=1;collapsible=1;childLayout=tableLayout;fixedRows=1;rowLines=0;fontStyle=1;align=center;resizeLast=1;html=1;" parent="1" vertex="1">
          <mxGeometry x="37" y="50" width="207" height="360" as="geometry" />
        </mxCell>
        <mxCell id="jzcKmIV3T17Fcgt4tWT3-2" value="" style="shape=tableRow;horizontal=0;startSize=0;swimlaneHead=0;swimlaneBody=0;fillColor=none;collapsible=0;dropTarget=0;points=[[0,0.5],[1,0.5]];portConstraint=eastwest;top=0;left=0;right=0;bottom=1;" parent="jzcKmIV3T17Fcgt4tWT3-1" vertex="1">
          <mxGeometry y="30" width="207" height="30" as="geometry" />
        </mxCell>
        <mxCell id="jzcKmIV3T17Fcgt4tWT3-3" value="PK_int" style="shape=partialRectangle;connectable=0;fillColor=none;top=0;left=0;bottom=0;right=0;fontStyle=1;overflow=hidden;whiteSpace=wrap;html=1;" parent="jzcKmIV3T17Fcgt4tWT3-2" vertex="1">
          <mxGeometry width="57" height="30" as="geometry">
            <mxRectangle width="57" height="30" as="alternateBounds" />
          </mxGeometry>
        </mxCell>
        <mxCell id="jzcKmIV3T17Fcgt4tWT3-4" value="variable_unique_id" style="shape=partialRectangle;connectable=0;fillColor=none;top=0;left=0;bottom=0;right=0;align=left;spacingLeft=6;fontStyle=5;overflow=hidden;whiteSpace=wrap;html=1;" parent="jzcKmIV3T17Fcgt4tWT3-2" vertex="1">
          <mxGeometry x="57" width="150" height="30" as="geometry">
            <mxRectangle width="150" height="30" as="alternateBounds" />
          </mxGeometry>
        </mxCell>
        <mxCell id="jzcKmIV3T17Fcgt4tWT3-8" value="" style="shape=tableRow;horizontal=0;startSize=0;swimlaneHead=0;swimlaneBody=0;fillColor=none;collapsible=0;dropTarget=0;points=[[0,0.5],[1,0.5]];portConstraint=eastwest;top=0;left=0;right=0;bottom=0;" parent="jzcKmIV3T17Fcgt4tWT3-1" vertex="1">
          <mxGeometry y="60" width="207" height="30" as="geometry" />
        </mxCell>
        <mxCell id="jzcKmIV3T17Fcgt4tWT3-9" value="varchat" style="shape=partialRectangle;connectable=0;fillColor=none;top=0;left=0;bottom=0;right=0;editable=1;overflow=hidden;whiteSpace=wrap;html=1;" parent="jzcKmIV3T17Fcgt4tWT3-8" vertex="1">
          <mxGeometry width="57" height="30" as="geometry">
            <mxRectangle width="57" height="30" as="alternateBounds" />
          </mxGeometry>
        </mxCell>
        <mxCell id="jzcKmIV3T17Fcgt4tWT3-10" value="variable_name" style="shape=partialRectangle;connectable=0;fillColor=none;top=0;left=0;bottom=0;right=0;align=left;spacingLeft=6;overflow=hidden;whiteSpace=wrap;html=1;" parent="jzcKmIV3T17Fcgt4tWT3-8" vertex="1">
          <mxGeometry x="57" width="150" height="30" as="geometry">
            <mxRectangle width="150" height="30" as="alternateBounds" />
          </mxGeometry>
        </mxCell>
        <mxCell id="jzcKmIV3T17Fcgt4tWT3-5" value="" style="shape=tableRow;horizontal=0;startSize=0;swimlaneHead=0;swimlaneBody=0;fillColor=none;collapsible=0;dropTarget=0;points=[[0,0.5],[1,0.5]];portConstraint=eastwest;top=0;left=0;right=0;bottom=0;" parent="jzcKmIV3T17Fcgt4tWT3-1" vertex="1">
          <mxGeometry y="90" width="207" height="30" as="geometry" />
        </mxCell>
        <mxCell id="jzcKmIV3T17Fcgt4tWT3-6" value="int" style="shape=partialRectangle;connectable=0;fillColor=none;top=0;left=0;bottom=0;right=0;editable=1;overflow=hidden;whiteSpace=wrap;html=1;" parent="jzcKmIV3T17Fcgt4tWT3-5" vertex="1">
          <mxGeometry width="57" height="30" as="geometry">
            <mxRectangle width="57" height="30" as="alternateBounds" />
          </mxGeometry>
        </mxCell>
        <mxCell id="jzcKmIV3T17Fcgt4tWT3-7" value="variable_id" style="shape=partialRectangle;connectable=0;fillColor=none;top=0;left=0;bottom=0;right=0;align=left;spacingLeft=6;overflow=hidden;whiteSpace=wrap;html=1;" parent="jzcKmIV3T17Fcgt4tWT3-5" vertex="1">
          <mxGeometry x="57" width="150" height="30" as="geometry">
            <mxRectangle width="150" height="30" as="alternateBounds" />
          </mxGeometry>
        </mxCell>
        <mxCell id="jzcKmIV3T17Fcgt4tWT3-11" value="" style="shape=tableRow;horizontal=0;startSize=0;swimlaneHead=0;swimlaneBody=0;fillColor=none;collapsible=0;dropTarget=0;points=[[0,0.5],[1,0.5]];portConstraint=eastwest;top=0;left=0;right=0;bottom=0;" parent="jzcKmIV3T17Fcgt4tWT3-1" vertex="1">
          <mxGeometry y="120" width="207" height="30" as="geometry" />
        </mxCell>
        <mxCell id="jzcKmIV3T17Fcgt4tWT3-12" value="int" style="shape=partialRectangle;connectable=0;fillColor=none;top=0;left=0;bottom=0;right=0;editable=1;overflow=hidden;whiteSpace=wrap;html=1;" parent="jzcKmIV3T17Fcgt4tWT3-11" vertex="1">
          <mxGeometry width="57" height="30" as="geometry">
            <mxRectangle width="57" height="30" as="alternateBounds" />
          </mxGeometry>
        </mxCell>
        <mxCell id="jzcKmIV3T17Fcgt4tWT3-13" value="version_id" style="shape=partialRectangle;connectable=0;fillColor=none;top=0;left=0;bottom=0;right=0;align=left;spacingLeft=6;overflow=hidden;whiteSpace=wrap;html=1;" parent="jzcKmIV3T17Fcgt4tWT3-11" vertex="1">
          <mxGeometry x="57" width="150" height="30" as="geometry">
            <mxRectangle width="150" height="30" as="alternateBounds" />
          </mxGeometry>
        </mxCell>
        <mxCell id="hupuYRYNH0XxqaEM0Vl5-1" value="" style="shape=tableRow;horizontal=0;startSize=0;swimlaneHead=0;swimlaneBody=0;fillColor=none;collapsible=0;dropTarget=0;points=[[0,0.5],[1,0.5]];portConstraint=eastwest;top=0;left=0;right=0;bottom=0;" parent="jzcKmIV3T17Fcgt4tWT3-1" vertex="1">
          <mxGeometry y="150" width="207" height="30" as="geometry" />
        </mxCell>
        <mxCell id="hupuYRYNH0XxqaEM0Vl5-2" value="text" style="shape=partialRectangle;connectable=0;fillColor=none;top=0;left=0;bottom=0;right=0;editable=1;overflow=hidden;whiteSpace=wrap;html=1;" parent="hupuYRYNH0XxqaEM0Vl5-1" vertex="1">
          <mxGeometry width="57" height="30" as="geometry">
            <mxRectangle width="57" height="30" as="alternateBounds" />
          </mxGeometry>
        </mxCell>
        <mxCell id="hupuYRYNH0XxqaEM0Vl5-3" value="creation_code" style="shape=partialRectangle;connectable=0;fillColor=none;top=0;left=0;bottom=0;right=0;align=left;spacingLeft=6;overflow=hidden;whiteSpace=wrap;html=1;" parent="hupuYRYNH0XxqaEM0Vl5-1" vertex="1">
          <mxGeometry x="57" width="150" height="30" as="geometry">
            <mxRectangle width="150" height="30" as="alternateBounds" />
          </mxGeometry>
        </mxCell>
        <mxCell id="hupuYRYNH0XxqaEM0Vl5-4" value="" style="shape=tableRow;horizontal=0;startSize=0;swimlaneHead=0;swimlaneBody=0;fillColor=none;collapsible=0;dropTarget=0;points=[[0,0.5],[1,0.5]];portConstraint=eastwest;top=0;left=0;right=0;bottom=0;" parent="jzcKmIV3T17Fcgt4tWT3-1" vertex="1">
          <mxGeometry y="180" width="207" height="30" as="geometry" />
        </mxCell>
        <mxCell id="hupuYRYNH0XxqaEM0Vl5-5" value="datetime" style="shape=partialRectangle;connectable=0;fillColor=none;top=0;left=0;bottom=0;right=0;editable=1;overflow=hidden;whiteSpace=wrap;html=1;" parent="hupuYRYNH0XxqaEM0Vl5-4" vertex="1">
          <mxGeometry width="57" height="30" as="geometry">
            <mxRectangle width="57" height="30" as="alternateBounds" />
          </mxGeometry>
        </mxCell>
        <mxCell id="hupuYRYNH0XxqaEM0Vl5-6" value="creation_time" style="shape=partialRectangle;connectable=0;fillColor=none;top=0;left=0;bottom=0;right=0;align=left;spacingLeft=6;overflow=hidden;whiteSpace=wrap;html=1;" parent="hupuYRYNH0XxqaEM0Vl5-4" vertex="1">
          <mxGeometry x="57" width="150" height="30" as="geometry">
            <mxRectangle width="150" height="30" as="alternateBounds" />
          </mxGeometry>
        </mxCell>
        <mxCell id="hupuYRYNH0XxqaEM0Vl5-7" value="" style="shape=tableRow;horizontal=0;startSize=0;swimlaneHead=0;swimlaneBody=0;fillColor=none;collapsible=0;dropTarget=0;points=[[0,0.5],[1,0.5]];portConstraint=eastwest;top=0;left=0;right=0;bottom=0;" parent="jzcKmIV3T17Fcgt4tWT3-1" vertex="1">
          <mxGeometry y="210" width="207" height="30" as="geometry" />
        </mxCell>
        <mxCell id="hupuYRYNH0XxqaEM0Vl5-8" value="text" style="shape=partialRectangle;connectable=0;fillColor=none;top=0;left=0;bottom=0;right=0;editable=1;overflow=hidden;whiteSpace=wrap;html=1;" parent="hupuYRYNH0XxqaEM0Vl5-7" vertex="1">
          <mxGeometry width="57" height="30" as="geometry">
            <mxRectangle width="57" height="30" as="alternateBounds" />
          </mxGeometry>
        </mxCell>
        <mxCell id="hupuYRYNH0XxqaEM0Vl5-9" value="creator_id" style="shape=partialRectangle;connectable=0;fillColor=none;top=0;left=0;bottom=0;right=0;align=left;spacingLeft=6;overflow=hidden;whiteSpace=wrap;html=1;" parent="hupuYRYNH0XxqaEM0Vl5-7" vertex="1">
          <mxGeometry x="57" width="150" height="30" as="geometry">
            <mxRectangle width="150" height="30" as="alternateBounds" />
          </mxGeometry>
        </mxCell>
        <mxCell id="hupuYRYNH0XxqaEM0Vl5-10" value="" style="shape=tableRow;horizontal=0;startSize=0;swimlaneHead=0;swimlaneBody=0;fillColor=none;collapsible=0;dropTarget=0;points=[[0,0.5],[1,0.5]];portConstraint=eastwest;top=0;left=0;right=0;bottom=0;" parent="jzcKmIV3T17Fcgt4tWT3-1" vertex="1">
          <mxGeometry y="240" width="207" height="30" as="geometry" />
        </mxCell>
        <mxCell id="hupuYRYNH0XxqaEM0Vl5-11" value="varchar" style="shape=partialRectangle;connectable=0;fillColor=none;top=0;left=0;bottom=0;right=0;editable=1;overflow=hidden;whiteSpace=wrap;html=1;" parent="hupuYRYNH0XxqaEM0Vl5-10" vertex="1">
          <mxGeometry width="57" height="30" as="geometry">
            <mxRectangle width="57" height="30" as="alternateBounds" />
          </mxGeometry>
        </mxCell>
        <mxCell id="hupuYRYNH0XxqaEM0Vl5-12" value="calculation_type" style="shape=partialRectangle;connectable=0;fillColor=none;top=0;left=0;bottom=0;right=0;align=left;spacingLeft=6;overflow=hidden;whiteSpace=wrap;html=1;" parent="hupuYRYNH0XxqaEM0Vl5-10" vertex="1">
          <mxGeometry x="57" width="150" height="30" as="geometry">
            <mxRectangle width="150" height="30" as="alternateBounds" />
          </mxGeometry>
        </mxCell>
        <mxCell id="OEc427HPAa9c7J9Ssu-d-1" value="" style="shape=tableRow;horizontal=0;startSize=0;swimlaneHead=0;swimlaneBody=0;fillColor=none;collapsible=0;dropTarget=0;points=[[0,0.5],[1,0.5]];portConstraint=eastwest;top=0;left=0;right=0;bottom=0;" parent="jzcKmIV3T17Fcgt4tWT3-1" vertex="1">
          <mxGeometry y="270" width="207" height="30" as="geometry" />
        </mxCell>
        <mxCell id="OEc427HPAa9c7J9Ssu-d-2" value="text" style="shape=partialRectangle;connectable=0;fillColor=none;top=0;left=0;bottom=0;right=0;editable=1;overflow=hidden;whiteSpace=wrap;html=1;" parent="OEc427HPAa9c7J9Ssu-d-1" vertex="1">
          <mxGeometry width="57" height="30" as="geometry">
            <mxRectangle width="57" height="30" as="alternateBounds" />
          </mxGeometry>
        </mxCell>
        <mxCell id="OEc427HPAa9c7J9Ssu-d-3" value="description" style="shape=partialRectangle;connectable=0;fillColor=none;top=0;left=0;bottom=0;right=0;align=left;spacingLeft=6;overflow=hidden;whiteSpace=wrap;html=1;" parent="OEc427HPAa9c7J9Ssu-d-1" vertex="1">
          <mxGeometry x="57" width="150" height="30" as="geometry">
            <mxRectangle width="150" height="30" as="alternateBounds" />
          </mxGeometry>
        </mxCell>
        <mxCell id="OEc427HPAa9c7J9Ssu-d-4" value="" style="shape=tableRow;horizontal=0;startSize=0;swimlaneHead=0;swimlaneBody=0;fillColor=none;collapsible=0;dropTarget=0;points=[[0,0.5],[1,0.5]];portConstraint=eastwest;top=0;left=0;right=0;bottom=0;" parent="jzcKmIV3T17Fcgt4tWT3-1" vertex="1">
          <mxGeometry y="300" width="207" height="30" as="geometry" />
        </mxCell>
        <mxCell id="OEc427HPAa9c7J9Ssu-d-5" value="varchar" style="shape=partialRectangle;connectable=0;fillColor=none;top=0;left=0;bottom=0;right=0;editable=1;overflow=hidden;whiteSpace=wrap;html=1;" parent="OEc427HPAa9c7J9Ssu-d-4" vertex="1">
          <mxGeometry width="57" height="30" as="geometry">
            <mxRectangle width="57" height="30" as="alternateBounds" />
          </mxGeometry>
        </mxCell>
        <mxCell id="OEc427HPAa9c7J9Ssu-d-6" value="data_type" style="shape=partialRectangle;connectable=0;fillColor=none;top=0;left=0;bottom=0;right=0;align=left;spacingLeft=6;overflow=hidden;whiteSpace=wrap;html=1;" parent="OEc427HPAa9c7J9Ssu-d-4" vertex="1">
          <mxGeometry x="57" width="150" height="30" as="geometry">
            <mxRectangle width="150" height="30" as="alternateBounds" />
          </mxGeometry>
        </mxCell>
        <mxCell id="OEc427HPAa9c7J9Ssu-d-7" value="" style="shape=tableRow;horizontal=0;startSize=0;swimlaneHead=0;swimlaneBody=0;fillColor=none;collapsible=0;dropTarget=0;points=[[0,0.5],[1,0.5]];portConstraint=eastwest;top=0;left=0;right=0;bottom=0;" parent="jzcKmIV3T17Fcgt4tWT3-1" vertex="1">
          <mxGeometry y="330" width="207" height="30" as="geometry" />
        </mxCell>
        <mxCell id="OEc427HPAa9c7J9Ssu-d-8" value="varchar" style="shape=partialRectangle;connectable=0;fillColor=none;top=0;left=0;bottom=0;right=0;editable=1;overflow=hidden;whiteSpace=wrap;html=1;" parent="OEc427HPAa9c7J9Ssu-d-7" vertex="1">
          <mxGeometry width="57" height="30" as="geometry">
            <mxRectangle width="57" height="30" as="alternateBounds" />
          </mxGeometry>
        </mxCell>
        <mxCell id="OEc427HPAa9c7J9Ssu-d-9" value="dependencies" style="shape=partialRectangle;connectable=0;fillColor=none;top=0;left=0;bottom=0;right=0;align=left;spacingLeft=6;overflow=hidden;whiteSpace=wrap;html=1;" parent="OEc427HPAa9c7J9Ssu-d-7" vertex="1">
          <mxGeometry x="57" width="150" height="30" as="geometry">
            <mxRectangle width="150" height="30" as="alternateBounds" />
          </mxGeometry>
        </mxCell>
        <mxCell id="OEc427HPAa9c7J9Ssu-d-13" value="AllVariables" style="shape=table;startSize=30;container=1;collapsible=1;childLayout=tableLayout;fixedRows=1;rowLines=0;fontStyle=1;align=center;resizeLast=1;html=1;" parent="1" vertex="1">
          <mxGeometry x="37" y="480" width="207" height="420" as="geometry" />
        </mxCell>
        <mxCell id="OEc427HPAa9c7J9Ssu-d-14" value="" style="shape=tableRow;horizontal=0;startSize=0;swimlaneHead=0;swimlaneBody=0;fillColor=none;collapsible=0;dropTarget=0;points=[[0,0.5],[1,0.5]];portConstraint=eastwest;top=0;left=0;right=0;bottom=1;" parent="OEc427HPAa9c7J9Ssu-d-13" vertex="1">
          <mxGeometry y="30" width="207" height="30" as="geometry" />
        </mxCell>
        <mxCell id="OEc427HPAa9c7J9Ssu-d-15" value="PK_int" style="shape=partialRectangle;connectable=0;fillColor=none;top=0;left=0;bottom=0;right=0;fontStyle=1;overflow=hidden;whiteSpace=wrap;html=1;" parent="OEc427HPAa9c7J9Ssu-d-14" vertex="1">
          <mxGeometry width="57" height="30" as="geometry">
            <mxRectangle width="57" height="30" as="alternateBounds" />
          </mxGeometry>
        </mxCell>
        <mxCell id="OEc427HPAa9c7J9Ssu-d-16" value="variable_unique_id" style="shape=partialRectangle;connectable=0;fillColor=none;top=0;left=0;bottom=0;right=0;align=left;spacingLeft=6;fontStyle=5;overflow=hidden;whiteSpace=wrap;html=1;" parent="OEc427HPAa9c7J9Ssu-d-14" vertex="1">
          <mxGeometry x="57" width="150" height="30" as="geometry">
            <mxRectangle width="150" height="30" as="alternateBounds" />
          </mxGeometry>
        </mxCell>
        <mxCell id="OEc427HPAa9c7J9Ssu-d-17" value="" style="shape=tableRow;horizontal=0;startSize=0;swimlaneHead=0;swimlaneBody=0;fillColor=none;collapsible=0;dropTarget=0;points=[[0,0.5],[1,0.5]];portConstraint=eastwest;top=0;left=0;right=0;bottom=0;" parent="OEc427HPAa9c7J9Ssu-d-13" vertex="1">
          <mxGeometry y="60" width="207" height="30" as="geometry" />
        </mxCell>
        <mxCell id="OEc427HPAa9c7J9Ssu-d-18" value="varchat" style="shape=partialRectangle;connectable=0;fillColor=none;top=0;left=0;bottom=0;right=0;editable=1;overflow=hidden;whiteSpace=wrap;html=1;" parent="OEc427HPAa9c7J9Ssu-d-17" vertex="1">
          <mxGeometry width="57" height="30" as="geometry">
            <mxRectangle width="57" height="30" as="alternateBounds" />
          </mxGeometry>
        </mxCell>
        <mxCell id="OEc427HPAa9c7J9Ssu-d-19" value="variable_name" style="shape=partialRectangle;connectable=0;fillColor=none;top=0;left=0;bottom=0;right=0;align=left;spacingLeft=6;overflow=hidden;whiteSpace=wrap;html=1;" parent="OEc427HPAa9c7J9Ssu-d-17" vertex="1">
          <mxGeometry x="57" width="150" height="30" as="geometry">
            <mxRectangle width="150" height="30" as="alternateBounds" />
          </mxGeometry>
        </mxCell>
        <mxCell id="OEc427HPAa9c7J9Ssu-d-20" value="" style="shape=tableRow;horizontal=0;startSize=0;swimlaneHead=0;swimlaneBody=0;fillColor=none;collapsible=0;dropTarget=0;points=[[0,0.5],[1,0.5]];portConstraint=eastwest;top=0;left=0;right=0;bottom=0;" parent="OEc427HPAa9c7J9Ssu-d-13" vertex="1">
          <mxGeometry y="90" width="207" height="30" as="geometry" />
        </mxCell>
        <mxCell id="OEc427HPAa9c7J9Ssu-d-21" value="int" style="shape=partialRectangle;connectable=0;fillColor=none;top=0;left=0;bottom=0;right=0;editable=1;overflow=hidden;whiteSpace=wrap;html=1;" parent="OEc427HPAa9c7J9Ssu-d-20" vertex="1">
          <mxGeometry width="57" height="30" as="geometry">
            <mxRectangle width="57" height="30" as="alternateBounds" />
          </mxGeometry>
        </mxCell>
        <mxCell id="OEc427HPAa9c7J9Ssu-d-22" value="variable_id" style="shape=partialRectangle;connectable=0;fillColor=none;top=0;left=0;bottom=0;right=0;align=left;spacingLeft=6;overflow=hidden;whiteSpace=wrap;html=1;" parent="OEc427HPAa9c7J9Ssu-d-20" vertex="1">
          <mxGeometry x="57" width="150" height="30" as="geometry">
            <mxRectangle width="150" height="30" as="alternateBounds" />
          </mxGeometry>
        </mxCell>
        <mxCell id="OEc427HPAa9c7J9Ssu-d-23" value="" style="shape=tableRow;horizontal=0;startSize=0;swimlaneHead=0;swimlaneBody=0;fillColor=none;collapsible=0;dropTarget=0;points=[[0,0.5],[1,0.5]];portConstraint=eastwest;top=0;left=0;right=0;bottom=0;" parent="OEc427HPAa9c7J9Ssu-d-13" vertex="1">
          <mxGeometry y="120" width="207" height="30" as="geometry" />
        </mxCell>
        <mxCell id="OEc427HPAa9c7J9Ssu-d-24" value="int" style="shape=partialRectangle;connectable=0;fillColor=none;top=0;left=0;bottom=0;right=0;editable=1;overflow=hidden;whiteSpace=wrap;html=1;" parent="OEc427HPAa9c7J9Ssu-d-23" vertex="1">
          <mxGeometry width="57" height="30" as="geometry">
            <mxRectangle width="57" height="30" as="alternateBounds" />
          </mxGeometry>
        </mxCell>
        <mxCell id="OEc427HPAa9c7J9Ssu-d-25" value="version_id" style="shape=partialRectangle;connectable=0;fillColor=none;top=0;left=0;bottom=0;right=0;align=left;spacingLeft=6;overflow=hidden;whiteSpace=wrap;html=1;" parent="OEc427HPAa9c7J9Ssu-d-23" vertex="1">
          <mxGeometry x="57" width="150" height="30" as="geometry">
            <mxRectangle width="150" height="30" as="alternateBounds" />
          </mxGeometry>
        </mxCell>
        <mxCell id="OEc427HPAa9c7J9Ssu-d-26" value="" style="shape=tableRow;horizontal=0;startSize=0;swimlaneHead=0;swimlaneBody=0;fillColor=none;collapsible=0;dropTarget=0;points=[[0,0.5],[1,0.5]];portConstraint=eastwest;top=0;left=0;right=0;bottom=0;" parent="OEc427HPAa9c7J9Ssu-d-13" vertex="1">
          <mxGeometry y="150" width="207" height="30" as="geometry" />
        </mxCell>
        <mxCell id="OEc427HPAa9c7J9Ssu-d-27" value="text" style="shape=partialRectangle;connectable=0;fillColor=none;top=0;left=0;bottom=0;right=0;editable=1;overflow=hidden;whiteSpace=wrap;html=1;" parent="OEc427HPAa9c7J9Ssu-d-26" vertex="1">
          <mxGeometry width="57" height="30" as="geometry">
            <mxRectangle width="57" height="30" as="alternateBounds" />
          </mxGeometry>
        </mxCell>
        <mxCell id="OEc427HPAa9c7J9Ssu-d-28" value="creation_code" style="shape=partialRectangle;connectable=0;fillColor=none;top=0;left=0;bottom=0;right=0;align=left;spacingLeft=6;overflow=hidden;whiteSpace=wrap;html=1;" parent="OEc427HPAa9c7J9Ssu-d-26" vertex="1">
          <mxGeometry x="57" width="150" height="30" as="geometry">
            <mxRectangle width="150" height="30" as="alternateBounds" />
          </mxGeometry>
        </mxCell>
        <mxCell id="OEc427HPAa9c7J9Ssu-d-29" value="" style="shape=tableRow;horizontal=0;startSize=0;swimlaneHead=0;swimlaneBody=0;fillColor=none;collapsible=0;dropTarget=0;points=[[0,0.5],[1,0.5]];portConstraint=eastwest;top=0;left=0;right=0;bottom=0;" parent="OEc427HPAa9c7J9Ssu-d-13" vertex="1">
          <mxGeometry y="180" width="207" height="30" as="geometry" />
        </mxCell>
        <mxCell id="OEc427HPAa9c7J9Ssu-d-30" value="datetime" style="shape=partialRectangle;connectable=0;fillColor=none;top=0;left=0;bottom=0;right=0;editable=1;overflow=hidden;whiteSpace=wrap;html=1;" parent="OEc427HPAa9c7J9Ssu-d-29" vertex="1">
          <mxGeometry width="57" height="30" as="geometry">
            <mxRectangle width="57" height="30" as="alternateBounds" />
          </mxGeometry>
        </mxCell>
        <mxCell id="OEc427HPAa9c7J9Ssu-d-31" value="creation_time" style="shape=partialRectangle;connectable=0;fillColor=none;top=0;left=0;bottom=0;right=0;align=left;spacingLeft=6;overflow=hidden;whiteSpace=wrap;html=1;" parent="OEc427HPAa9c7J9Ssu-d-29" vertex="1">
          <mxGeometry x="57" width="150" height="30" as="geometry">
            <mxRectangle width="150" height="30" as="alternateBounds" />
          </mxGeometry>
        </mxCell>
        <mxCell id="OEc427HPAa9c7J9Ssu-d-32" value="" style="shape=tableRow;horizontal=0;startSize=0;swimlaneHead=0;swimlaneBody=0;fillColor=none;collapsible=0;dropTarget=0;points=[[0,0.5],[1,0.5]];portConstraint=eastwest;top=0;left=0;right=0;bottom=0;" parent="OEc427HPAa9c7J9Ssu-d-13" vertex="1">
          <mxGeometry y="210" width="207" height="30" as="geometry" />
        </mxCell>
        <mxCell id="OEc427HPAa9c7J9Ssu-d-33" value="text" style="shape=partialRectangle;connectable=0;fillColor=none;top=0;left=0;bottom=0;right=0;editable=1;overflow=hidden;whiteSpace=wrap;html=1;" parent="OEc427HPAa9c7J9Ssu-d-32" vertex="1">
          <mxGeometry width="57" height="30" as="geometry">
            <mxRectangle width="57" height="30" as="alternateBounds" />
          </mxGeometry>
        </mxCell>
        <mxCell id="OEc427HPAa9c7J9Ssu-d-34" value="creator_id" style="shape=partialRectangle;connectable=0;fillColor=none;top=0;left=0;bottom=0;right=0;align=left;spacingLeft=6;overflow=hidden;whiteSpace=wrap;html=1;" parent="OEc427HPAa9c7J9Ssu-d-32" vertex="1">
          <mxGeometry x="57" width="150" height="30" as="geometry">
            <mxRectangle width="150" height="30" as="alternateBounds" />
          </mxGeometry>
        </mxCell>
        <mxCell id="OEc427HPAa9c7J9Ssu-d-35" value="" style="shape=tableRow;horizontal=0;startSize=0;swimlaneHead=0;swimlaneBody=0;fillColor=none;collapsible=0;dropTarget=0;points=[[0,0.5],[1,0.5]];portConstraint=eastwest;top=0;left=0;right=0;bottom=0;" parent="OEc427HPAa9c7J9Ssu-d-13" vertex="1">
          <mxGeometry y="240" width="207" height="30" as="geometry" />
        </mxCell>
        <mxCell id="OEc427HPAa9c7J9Ssu-d-36" value="varchar" style="shape=partialRectangle;connectable=0;fillColor=none;top=0;left=0;bottom=0;right=0;editable=1;overflow=hidden;whiteSpace=wrap;html=1;" parent="OEc427HPAa9c7J9Ssu-d-35" vertex="1">
          <mxGeometry width="57" height="30" as="geometry">
            <mxRectangle width="57" height="30" as="alternateBounds" />
          </mxGeometry>
        </mxCell>
        <mxCell id="OEc427HPAa9c7J9Ssu-d-37" value="calculation_type" style="shape=partialRectangle;connectable=0;fillColor=none;top=0;left=0;bottom=0;right=0;align=left;spacingLeft=6;overflow=hidden;whiteSpace=wrap;html=1;" parent="OEc427HPAa9c7J9Ssu-d-35" vertex="1">
          <mxGeometry x="57" width="150" height="30" as="geometry">
            <mxRectangle width="150" height="30" as="alternateBounds" />
          </mxGeometry>
        </mxCell>
        <mxCell id="OEc427HPAa9c7J9Ssu-d-38" value="" style="shape=tableRow;horizontal=0;startSize=0;swimlaneHead=0;swimlaneBody=0;fillColor=none;collapsible=0;dropTarget=0;points=[[0,0.5],[1,0.5]];portConstraint=eastwest;top=0;left=0;right=0;bottom=0;" parent="OEc427HPAa9c7J9Ssu-d-13" vertex="1">
          <mxGeometry y="270" width="207" height="30" as="geometry" />
        </mxCell>
        <mxCell id="OEc427HPAa9c7J9Ssu-d-39" value="text" style="shape=partialRectangle;connectable=0;fillColor=none;top=0;left=0;bottom=0;right=0;editable=1;overflow=hidden;whiteSpace=wrap;html=1;" parent="OEc427HPAa9c7J9Ssu-d-38" vertex="1">
          <mxGeometry width="57" height="30" as="geometry">
            <mxRectangle width="57" height="30" as="alternateBounds" />
          </mxGeometry>
        </mxCell>
        <mxCell id="OEc427HPAa9c7J9Ssu-d-40" value="description" style="shape=partialRectangle;connectable=0;fillColor=none;top=0;left=0;bottom=0;right=0;align=left;spacingLeft=6;overflow=hidden;whiteSpace=wrap;html=1;" parent="OEc427HPAa9c7J9Ssu-d-38" vertex="1">
          <mxGeometry x="57" width="150" height="30" as="geometry">
            <mxRectangle width="150" height="30" as="alternateBounds" />
          </mxGeometry>
        </mxCell>
        <mxCell id="OEc427HPAa9c7J9Ssu-d-41" value="" style="shape=tableRow;horizontal=0;startSize=0;swimlaneHead=0;swimlaneBody=0;fillColor=none;collapsible=0;dropTarget=0;points=[[0,0.5],[1,0.5]];portConstraint=eastwest;top=0;left=0;right=0;bottom=0;" parent="OEc427HPAa9c7J9Ssu-d-13" vertex="1">
          <mxGeometry y="300" width="207" height="30" as="geometry" />
        </mxCell>
        <mxCell id="OEc427HPAa9c7J9Ssu-d-42" value="varchar" style="shape=partialRectangle;connectable=0;fillColor=none;top=0;left=0;bottom=0;right=0;editable=1;overflow=hidden;whiteSpace=wrap;html=1;" parent="OEc427HPAa9c7J9Ssu-d-41" vertex="1">
          <mxGeometry width="57" height="30" as="geometry">
            <mxRectangle width="57" height="30" as="alternateBounds" />
          </mxGeometry>
        </mxCell>
        <mxCell id="OEc427HPAa9c7J9Ssu-d-43" value="data_type" style="shape=partialRectangle;connectable=0;fillColor=none;top=0;left=0;bottom=0;right=0;align=left;spacingLeft=6;overflow=hidden;whiteSpace=wrap;html=1;" parent="OEc427HPAa9c7J9Ssu-d-41" vertex="1">
          <mxGeometry x="57" width="150" height="30" as="geometry">
            <mxRectangle width="150" height="30" as="alternateBounds" />
          </mxGeometry>
        </mxCell>
        <mxCell id="OEc427HPAa9c7J9Ssu-d-44" value="" style="shape=tableRow;horizontal=0;startSize=0;swimlaneHead=0;swimlaneBody=0;fillColor=none;collapsible=0;dropTarget=0;points=[[0,0.5],[1,0.5]];portConstraint=eastwest;top=0;left=0;right=0;bottom=0;" parent="OEc427HPAa9c7J9Ssu-d-13" vertex="1">
          <mxGeometry y="330" width="207" height="30" as="geometry" />
        </mxCell>
        <mxCell id="OEc427HPAa9c7J9Ssu-d-45" value="varchar" style="shape=partialRectangle;connectable=0;fillColor=none;top=0;left=0;bottom=0;right=0;editable=1;overflow=hidden;whiteSpace=wrap;html=1;" parent="OEc427HPAa9c7J9Ssu-d-44" vertex="1">
          <mxGeometry width="57" height="30" as="geometry">
            <mxRectangle width="57" height="30" as="alternateBounds" />
          </mxGeometry>
        </mxCell>
        <mxCell id="OEc427HPAa9c7J9Ssu-d-46" value="dependencies" style="shape=partialRectangle;connectable=0;fillColor=none;top=0;left=0;bottom=0;right=0;align=left;spacingLeft=6;overflow=hidden;whiteSpace=wrap;html=1;" parent="OEc427HPAa9c7J9Ssu-d-44" vertex="1">
          <mxGeometry x="57" width="150" height="30" as="geometry">
            <mxRectangle width="150" height="30" as="alternateBounds" />
          </mxGeometry>
        </mxCell>
        <mxCell id="OEc427HPAa9c7J9Ssu-d-47" value="" style="shape=tableRow;horizontal=0;startSize=0;swimlaneHead=0;swimlaneBody=0;fillColor=none;collapsible=0;dropTarget=0;points=[[0,0.5],[1,0.5]];portConstraint=eastwest;top=0;left=0;right=0;bottom=0;" parent="OEc427HPAa9c7J9Ssu-d-13" vertex="1">
          <mxGeometry y="360" width="207" height="30" as="geometry" />
        </mxCell>
        <mxCell id="OEc427HPAa9c7J9Ssu-d-48" value="boolean" style="shape=partialRectangle;connectable=0;fillColor=none;top=0;left=0;bottom=0;right=0;editable=1;overflow=hidden;whiteSpace=wrap;html=1;" parent="OEc427HPAa9c7J9Ssu-d-47" vertex="1">
          <mxGeometry width="57" height="30" as="geometry">
            <mxRectangle width="57" height="30" as="alternateBounds" />
          </mxGeometry>
        </mxCell>
        <mxCell id="OEc427HPAa9c7J9Ssu-d-49" value="is_deleted" style="shape=partialRectangle;connectable=0;fillColor=none;top=0;left=0;bottom=0;right=0;align=left;spacingLeft=6;overflow=hidden;whiteSpace=wrap;html=1;" parent="OEc427HPAa9c7J9Ssu-d-47" vertex="1">
          <mxGeometry x="57" width="150" height="30" as="geometry">
            <mxRectangle width="150" height="30" as="alternateBounds" />
          </mxGeometry>
        </mxCell>
        <mxCell id="ffM-1FpFr4ko-ro5kKLQ-4" value="" style="shape=tableRow;horizontal=0;startSize=0;swimlaneHead=0;swimlaneBody=0;fillColor=none;collapsible=0;dropTarget=0;points=[[0,0.5],[1,0.5]];portConstraint=eastwest;top=0;left=0;right=0;bottom=0;" parent="OEc427HPAa9c7J9Ssu-d-13" vertex="1">
          <mxGeometry y="390" width="207" height="30" as="geometry" />
        </mxCell>
        <mxCell id="ffM-1FpFr4ko-ro5kKLQ-5" value="boolean" style="shape=partialRectangle;connectable=0;fillColor=none;top=0;left=0;bottom=0;right=0;editable=1;overflow=hidden;whiteSpace=wrap;html=1;" parent="ffM-1FpFr4ko-ro5kKLQ-4" vertex="1">
          <mxGeometry width="57" height="30" as="geometry">
            <mxRectangle width="57" height="30" as="alternateBounds" />
          </mxGeometry>
        </mxCell>
        <mxCell id="ffM-1FpFr4ko-ro5kKLQ-6" value="is_active" style="shape=partialRectangle;connectable=0;fillColor=none;top=0;left=0;bottom=0;right=0;align=left;spacingLeft=6;overflow=hidden;whiteSpace=wrap;html=1;" parent="ffM-1FpFr4ko-ro5kKLQ-4" vertex="1">
          <mxGeometry x="57" width="150" height="30" as="geometry">
            <mxRectangle width="150" height="30" as="alternateBounds" />
          </mxGeometry>
        </mxCell>
        <mxCell id="OEc427HPAa9c7J9Ssu-d-50" value="ConnectorFlowVariables" style="shape=table;startSize=30;container=1;collapsible=1;childLayout=tableLayout;fixedRows=1;rowLines=0;fontStyle=1;align=center;resizeLast=1;html=1;" parent="1" vertex="1">
          <mxGeometry x="312" y="-200" width="208" height="120" as="geometry" />
        </mxCell>
        <mxCell id="OEc427HPAa9c7J9Ssu-d-51" value="" style="shape=tableRow;horizontal=0;startSize=0;swimlaneHead=0;swimlaneBody=0;fillColor=none;collapsible=0;dropTarget=0;points=[[0,0.5],[1,0.5]];portConstraint=eastwest;top=0;left=0;right=0;bottom=1;" parent="OEc427HPAa9c7J9Ssu-d-50" vertex="1">
          <mxGeometry y="30" width="208" height="30" as="geometry" />
        </mxCell>
        <mxCell id="OEc427HPAa9c7J9Ssu-d-52" value="PK_int" style="shape=partialRectangle;connectable=0;fillColor=none;top=0;left=0;bottom=0;right=0;fontStyle=1;overflow=hidden;whiteSpace=wrap;html=1;" parent="OEc427HPAa9c7J9Ssu-d-51" vertex="1">
          <mxGeometry width="58" height="30" as="geometry">
            <mxRectangle width="58" height="30" as="alternateBounds" />
          </mxGeometry>
        </mxCell>
        <mxCell id="OEc427HPAa9c7J9Ssu-d-53" value="unique_id" style="shape=partialRectangle;connectable=0;fillColor=none;top=0;left=0;bottom=0;right=0;align=left;spacingLeft=6;fontStyle=5;overflow=hidden;whiteSpace=wrap;html=1;" parent="OEc427HPAa9c7J9Ssu-d-51" vertex="1">
          <mxGeometry x="58" width="150" height="30" as="geometry">
            <mxRectangle width="150" height="30" as="alternateBounds" />
          </mxGeometry>
        </mxCell>
        <mxCell id="OEc427HPAa9c7J9Ssu-d-54" value="" style="shape=tableRow;horizontal=0;startSize=0;swimlaneHead=0;swimlaneBody=0;fillColor=none;collapsible=0;dropTarget=0;points=[[0,0.5],[1,0.5]];portConstraint=eastwest;top=0;left=0;right=0;bottom=0;" parent="OEc427HPAa9c7J9Ssu-d-50" vertex="1">
          <mxGeometry y="60" width="208" height="30" as="geometry" />
        </mxCell>
        <mxCell id="OEc427HPAa9c7J9Ssu-d-55" value="int" style="shape=partialRectangle;connectable=0;fillColor=none;top=0;left=0;bottom=0;right=0;editable=1;overflow=hidden;whiteSpace=wrap;html=1;" parent="OEc427HPAa9c7J9Ssu-d-54" vertex="1">
          <mxGeometry width="58" height="30" as="geometry">
            <mxRectangle width="58" height="30" as="alternateBounds" />
          </mxGeometry>
        </mxCell>
        <mxCell id="OEc427HPAa9c7J9Ssu-d-56" value="flow_id" style="shape=partialRectangle;connectable=0;fillColor=none;top=0;left=0;bottom=0;right=0;align=left;spacingLeft=6;overflow=hidden;whiteSpace=wrap;html=1;" parent="OEc427HPAa9c7J9Ssu-d-54" vertex="1">
          <mxGeometry x="58" width="150" height="30" as="geometry">
            <mxRectangle width="150" height="30" as="alternateBounds" />
          </mxGeometry>
        </mxCell>
        <mxCell id="OEc427HPAa9c7J9Ssu-d-57" value="" style="shape=tableRow;horizontal=0;startSize=0;swimlaneHead=0;swimlaneBody=0;fillColor=none;collapsible=0;dropTarget=0;points=[[0,0.5],[1,0.5]];portConstraint=eastwest;top=0;left=0;right=0;bottom=0;" parent="OEc427HPAa9c7J9Ssu-d-50" vertex="1">
          <mxGeometry y="90" width="208" height="30" as="geometry" />
        </mxCell>
        <mxCell id="OEc427HPAa9c7J9Ssu-d-58" value="int" style="shape=partialRectangle;connectable=0;fillColor=none;top=0;left=0;bottom=0;right=0;editable=1;overflow=hidden;whiteSpace=wrap;html=1;" parent="OEc427HPAa9c7J9Ssu-d-57" vertex="1">
          <mxGeometry width="58" height="30" as="geometry">
            <mxRectangle width="58" height="30" as="alternateBounds" />
          </mxGeometry>
        </mxCell>
        <mxCell id="OEc427HPAa9c7J9Ssu-d-59" value="combination_id" style="shape=partialRectangle;connectable=0;fillColor=none;top=0;left=0;bottom=0;right=0;align=left;spacingLeft=6;overflow=hidden;whiteSpace=wrap;html=1;" parent="OEc427HPAa9c7J9Ssu-d-57" vertex="1">
          <mxGeometry x="58" width="150" height="30" as="geometry">
            <mxRectangle width="150" height="30" as="alternateBounds" />
          </mxGeometry>
        </mxCell>
        <mxCell id="OEc427HPAa9c7J9Ssu-d-63" value="" style="edgeStyle=entityRelationEdgeStyle;fontSize=12;html=1;endArrow=ERoneToMany;rounded=0;exitX=1;exitY=0.5;exitDx=0;exitDy=0;entryX=0;entryY=0.5;entryDx=0;entryDy=0;" parent="1" source="jzcKmIV3T17Fcgt4tWT3-2" target="OEc427HPAa9c7J9Ssu-d-57" edge="1">
          <mxGeometry width="100" height="100" relative="1" as="geometry">
            <mxPoint x="377" y="470" as="sourcePoint" />
            <mxPoint x="361" y="290" as="targetPoint" />
          </mxGeometry>
        </mxCell>
        <mxCell id="omFBL_B4VjJXZDLF0AZF-1" value="" style="edgeStyle=entityRelationEdgeStyle;fontSize=12;html=1;endArrow=ERoneToMany;rounded=0;entryX=1;entryY=0.5;entryDx=0;entryDy=0;" parent="1" target="OEc427HPAa9c7J9Ssu-d-54" edge="1">
          <mxGeometry width="100" height="100" relative="1" as="geometry">
            <mxPoint x="557" y="-125" as="sourcePoint" />
            <mxPoint x="477" y="330" as="targetPoint" />
          </mxGeometry>
        </mxCell>
        <mxCell id="omFBL_B4VjJXZDLF0AZF-3" value="ConnectorRulesVariables" style="shape=table;startSize=30;container=1;collapsible=1;childLayout=tableLayout;fixedRows=1;rowLines=0;fontStyle=1;align=center;resizeLast=1;html=1;" parent="1" vertex="1">
          <mxGeometry x="312" y="-60" width="207" height="120" as="geometry" />
        </mxCell>
        <mxCell id="omFBL_B4VjJXZDLF0AZF-4" value="" style="shape=tableRow;horizontal=0;startSize=0;swimlaneHead=0;swimlaneBody=0;fillColor=none;collapsible=0;dropTarget=0;points=[[0,0.5],[1,0.5]];portConstraint=eastwest;top=0;left=0;right=0;bottom=1;" parent="omFBL_B4VjJXZDLF0AZF-3" vertex="1">
          <mxGeometry y="30" width="207" height="30" as="geometry" />
        </mxCell>
        <mxCell id="omFBL_B4VjJXZDLF0AZF-5" value="PK_int" style="shape=partialRectangle;connectable=0;fillColor=none;top=0;left=0;bottom=0;right=0;fontStyle=1;overflow=hidden;whiteSpace=wrap;html=1;" parent="omFBL_B4VjJXZDLF0AZF-4" vertex="1">
          <mxGeometry width="57" height="30" as="geometry">
            <mxRectangle width="57" height="30" as="alternateBounds" />
          </mxGeometry>
        </mxCell>
        <mxCell id="omFBL_B4VjJXZDLF0AZF-6" value="unique_id" style="shape=partialRectangle;connectable=0;fillColor=none;top=0;left=0;bottom=0;right=0;align=left;spacingLeft=6;fontStyle=5;overflow=hidden;whiteSpace=wrap;html=1;" parent="omFBL_B4VjJXZDLF0AZF-4" vertex="1">
          <mxGeometry x="57" width="150" height="30" as="geometry">
            <mxRectangle width="150" height="30" as="alternateBounds" />
          </mxGeometry>
        </mxCell>
        <mxCell id="omFBL_B4VjJXZDLF0AZF-7" value="" style="shape=tableRow;horizontal=0;startSize=0;swimlaneHead=0;swimlaneBody=0;fillColor=none;collapsible=0;dropTarget=0;points=[[0,0.5],[1,0.5]];portConstraint=eastwest;top=0;left=0;right=0;bottom=0;" parent="omFBL_B4VjJXZDLF0AZF-3" vertex="1">
          <mxGeometry y="60" width="207" height="30" as="geometry" />
        </mxCell>
        <mxCell id="omFBL_B4VjJXZDLF0AZF-8" value="int" style="shape=partialRectangle;connectable=0;fillColor=none;top=0;left=0;bottom=0;right=0;editable=1;overflow=hidden;whiteSpace=wrap;html=1;" parent="omFBL_B4VjJXZDLF0AZF-7" vertex="1">
          <mxGeometry width="57" height="30" as="geometry">
            <mxRectangle width="57" height="30" as="alternateBounds" />
          </mxGeometry>
        </mxCell>
        <mxCell id="omFBL_B4VjJXZDLF0AZF-9" value="rule_unique_id" style="shape=partialRectangle;connectable=0;fillColor=none;top=0;left=0;bottom=0;right=0;align=left;spacingLeft=6;overflow=hidden;whiteSpace=wrap;html=1;" parent="omFBL_B4VjJXZDLF0AZF-7" vertex="1">
          <mxGeometry x="57" width="150" height="30" as="geometry">
            <mxRectangle width="150" height="30" as="alternateBounds" />
          </mxGeometry>
        </mxCell>
        <mxCell id="omFBL_B4VjJXZDLF0AZF-10" value="" style="shape=tableRow;horizontal=0;startSize=0;swimlaneHead=0;swimlaneBody=0;fillColor=none;collapsible=0;dropTarget=0;points=[[0,0.5],[1,0.5]];portConstraint=eastwest;top=0;left=0;right=0;bottom=0;" parent="omFBL_B4VjJXZDLF0AZF-3" vertex="1">
          <mxGeometry y="90" width="207" height="30" as="geometry" />
        </mxCell>
        <mxCell id="omFBL_B4VjJXZDLF0AZF-11" value="int" style="shape=partialRectangle;connectable=0;fillColor=none;top=0;left=0;bottom=0;right=0;editable=1;overflow=hidden;whiteSpace=wrap;html=1;" parent="omFBL_B4VjJXZDLF0AZF-10" vertex="1">
          <mxGeometry width="57" height="30" as="geometry">
            <mxRectangle width="57" height="30" as="alternateBounds" />
          </mxGeometry>
        </mxCell>
        <mxCell id="omFBL_B4VjJXZDLF0AZF-12" value="variable_unique_id" style="shape=partialRectangle;connectable=0;fillColor=none;top=0;left=0;bottom=0;right=0;align=left;spacingLeft=6;overflow=hidden;whiteSpace=wrap;html=1;" parent="omFBL_B4VjJXZDLF0AZF-10" vertex="1">
          <mxGeometry x="57" width="150" height="30" as="geometry">
            <mxRectangle width="150" height="30" as="alternateBounds" />
          </mxGeometry>
        </mxCell>
        <mxCell id="omFBL_B4VjJXZDLF0AZF-17" value="" style="edgeStyle=entityRelationEdgeStyle;fontSize=12;html=1;endArrow=ERoneToMany;rounded=0;entryX=0;entryY=0.5;entryDx=0;entryDy=0;" parent="1" target="omFBL_B4VjJXZDLF0AZF-10" edge="1">
          <mxGeometry width="100" height="100" relative="1" as="geometry">
            <mxPoint x="244" y="90" as="sourcePoint" />
            <mxPoint x="314" y="315" as="targetPoint" />
          </mxGeometry>
        </mxCell>
        <mxCell id="omFBL_B4VjJXZDLF0AZF-18" value="" style="edgeStyle=entityRelationEdgeStyle;fontSize=12;html=1;endArrow=ERoneToMany;rounded=0;entryX=1;entryY=0.5;entryDx=0;entryDy=0;" parent="1" target="omFBL_B4VjJXZDLF0AZF-7" edge="1">
          <mxGeometry width="100" height="100" relative="1" as="geometry">
            <mxPoint x="547" y="35" as="sourcePoint" />
            <mxPoint x="467" y="280" as="targetPoint" />
          </mxGeometry>
        </mxCell>
        <mxCell id="bpkwhLDXA1G38Zf4pE7G-1" value="ConnectorRolesUsers" style="shape=table;startSize=30;container=1;collapsible=1;childLayout=tableLayout;fixedRows=1;rowLines=0;fontStyle=1;align=center;resizeLast=1;html=1;" parent="1" vertex="1">
          <mxGeometry x="657" y="-10" width="196" height="120" as="geometry" />
        </mxCell>
        <mxCell id="bpkwhLDXA1G38Zf4pE7G-2" value="" style="shape=tableRow;horizontal=0;startSize=0;swimlaneHead=0;swimlaneBody=0;fillColor=none;collapsible=0;dropTarget=0;points=[[0,0.5],[1,0.5]];portConstraint=eastwest;top=0;left=0;right=0;bottom=1;" parent="bpkwhLDXA1G38Zf4pE7G-1" vertex="1">
          <mxGeometry y="30" width="196" height="30" as="geometry" />
        </mxCell>
        <mxCell id="bpkwhLDXA1G38Zf4pE7G-3" value="PK_int" style="shape=partialRectangle;connectable=0;fillColor=none;top=0;left=0;bottom=0;right=0;fontStyle=1;overflow=hidden;whiteSpace=wrap;html=1;" parent="bpkwhLDXA1G38Zf4pE7G-2" vertex="1">
          <mxGeometry width="46" height="30" as="geometry">
            <mxRectangle width="46" height="30" as="alternateBounds" />
          </mxGeometry>
        </mxCell>
        <mxCell id="bpkwhLDXA1G38Zf4pE7G-4" value="unique_id" style="shape=partialRectangle;connectable=0;fillColor=none;top=0;left=0;bottom=0;right=0;align=left;spacingLeft=6;fontStyle=5;overflow=hidden;whiteSpace=wrap;html=1;" parent="bpkwhLDXA1G38Zf4pE7G-2" vertex="1">
          <mxGeometry x="46" width="150" height="30" as="geometry">
            <mxRectangle width="150" height="30" as="alternateBounds" />
          </mxGeometry>
        </mxCell>
        <mxCell id="bpkwhLDXA1G38Zf4pE7G-5" value="" style="shape=tableRow;horizontal=0;startSize=0;swimlaneHead=0;swimlaneBody=0;fillColor=none;collapsible=0;dropTarget=0;points=[[0,0.5],[1,0.5]];portConstraint=eastwest;top=0;left=0;right=0;bottom=0;" parent="bpkwhLDXA1G38Zf4pE7G-1" vertex="1">
          <mxGeometry y="60" width="196" height="30" as="geometry" />
        </mxCell>
        <mxCell id="bpkwhLDXA1G38Zf4pE7G-6" value="int" style="shape=partialRectangle;connectable=0;fillColor=none;top=0;left=0;bottom=0;right=0;editable=1;overflow=hidden;whiteSpace=wrap;html=1;" parent="bpkwhLDXA1G38Zf4pE7G-5" vertex="1">
          <mxGeometry width="46" height="30" as="geometry">
            <mxRectangle width="46" height="30" as="alternateBounds" />
          </mxGeometry>
        </mxCell>
        <mxCell id="bpkwhLDXA1G38Zf4pE7G-7" value="role_id" style="shape=partialRectangle;connectable=0;fillColor=none;top=0;left=0;bottom=0;right=0;align=left;spacingLeft=6;overflow=hidden;whiteSpace=wrap;html=1;" parent="bpkwhLDXA1G38Zf4pE7G-5" vertex="1">
          <mxGeometry x="46" width="150" height="30" as="geometry">
            <mxRectangle width="150" height="30" as="alternateBounds" />
          </mxGeometry>
        </mxCell>
        <mxCell id="bpkwhLDXA1G38Zf4pE7G-8" value="" style="shape=tableRow;horizontal=0;startSize=0;swimlaneHead=0;swimlaneBody=0;fillColor=none;collapsible=0;dropTarget=0;points=[[0,0.5],[1,0.5]];portConstraint=eastwest;top=0;left=0;right=0;bottom=0;" parent="bpkwhLDXA1G38Zf4pE7G-1" vertex="1">
          <mxGeometry y="90" width="196" height="30" as="geometry" />
        </mxCell>
        <mxCell id="bpkwhLDXA1G38Zf4pE7G-9" value="int" style="shape=partialRectangle;connectable=0;fillColor=none;top=0;left=0;bottom=0;right=0;editable=1;overflow=hidden;whiteSpace=wrap;html=1;" parent="bpkwhLDXA1G38Zf4pE7G-8" vertex="1">
          <mxGeometry width="46" height="30" as="geometry">
            <mxRectangle width="46" height="30" as="alternateBounds" />
          </mxGeometry>
        </mxCell>
        <mxCell id="bpkwhLDXA1G38Zf4pE7G-10" value="user_id" style="shape=partialRectangle;connectable=0;fillColor=none;top=0;left=0;bottom=0;right=0;align=left;spacingLeft=6;overflow=hidden;whiteSpace=wrap;html=1;" parent="bpkwhLDXA1G38Zf4pE7G-8" vertex="1">
          <mxGeometry x="46" width="150" height="30" as="geometry">
            <mxRectangle width="150" height="30" as="alternateBounds" />
          </mxGeometry>
        </mxCell>
        <mxCell id="bpkwhLDXA1G38Zf4pE7G-29" value="Roles" style="shape=table;startSize=30;container=1;collapsible=1;childLayout=tableLayout;fixedRows=1;rowLines=0;fontStyle=1;align=center;resizeLast=1;html=1;" parent="1" vertex="1">
          <mxGeometry x="917" y="-10" width="202" height="120" as="geometry" />
        </mxCell>
        <mxCell id="bpkwhLDXA1G38Zf4pE7G-30" value="" style="shape=tableRow;horizontal=0;startSize=0;swimlaneHead=0;swimlaneBody=0;fillColor=none;collapsible=0;dropTarget=0;points=[[0,0.5],[1,0.5]];portConstraint=eastwest;top=0;left=0;right=0;bottom=1;" parent="bpkwhLDXA1G38Zf4pE7G-29" vertex="1">
          <mxGeometry y="30" width="202" height="30" as="geometry" />
        </mxCell>
        <mxCell id="bpkwhLDXA1G38Zf4pE7G-31" value="PK_int" style="shape=partialRectangle;connectable=0;fillColor=none;top=0;left=0;bottom=0;right=0;fontStyle=1;overflow=hidden;whiteSpace=wrap;html=1;" parent="bpkwhLDXA1G38Zf4pE7G-30" vertex="1">
          <mxGeometry width="52" height="30" as="geometry">
            <mxRectangle width="52" height="30" as="alternateBounds" />
          </mxGeometry>
        </mxCell>
        <mxCell id="bpkwhLDXA1G38Zf4pE7G-32" value="role_id" style="shape=partialRectangle;connectable=0;fillColor=none;top=0;left=0;bottom=0;right=0;align=left;spacingLeft=6;fontStyle=5;overflow=hidden;whiteSpace=wrap;html=1;" parent="bpkwhLDXA1G38Zf4pE7G-30" vertex="1">
          <mxGeometry x="52" width="150" height="30" as="geometry">
            <mxRectangle width="150" height="30" as="alternateBounds" />
          </mxGeometry>
        </mxCell>
        <mxCell id="bpkwhLDXA1G38Zf4pE7G-33" value="" style="shape=tableRow;horizontal=0;startSize=0;swimlaneHead=0;swimlaneBody=0;fillColor=none;collapsible=0;dropTarget=0;points=[[0,0.5],[1,0.5]];portConstraint=eastwest;top=0;left=0;right=0;bottom=0;" parent="bpkwhLDXA1G38Zf4pE7G-29" vertex="1">
          <mxGeometry y="60" width="202" height="30" as="geometry" />
        </mxCell>
        <mxCell id="bpkwhLDXA1G38Zf4pE7G-34" value="varchar" style="shape=partialRectangle;connectable=0;fillColor=none;top=0;left=0;bottom=0;right=0;editable=1;overflow=hidden;whiteSpace=wrap;html=1;" parent="bpkwhLDXA1G38Zf4pE7G-33" vertex="1">
          <mxGeometry width="52" height="30" as="geometry">
            <mxRectangle width="52" height="30" as="alternateBounds" />
          </mxGeometry>
        </mxCell>
        <mxCell id="bpkwhLDXA1G38Zf4pE7G-35" value="role_name" style="shape=partialRectangle;connectable=0;fillColor=none;top=0;left=0;bottom=0;right=0;align=left;spacingLeft=6;overflow=hidden;whiteSpace=wrap;html=1;" parent="bpkwhLDXA1G38Zf4pE7G-33" vertex="1">
          <mxGeometry x="52" width="150" height="30" as="geometry">
            <mxRectangle width="150" height="30" as="alternateBounds" />
          </mxGeometry>
        </mxCell>
        <mxCell id="bpkwhLDXA1G38Zf4pE7G-36" value="" style="shape=tableRow;horizontal=0;startSize=0;swimlaneHead=0;swimlaneBody=0;fillColor=none;collapsible=0;dropTarget=0;points=[[0,0.5],[1,0.5]];portConstraint=eastwest;top=0;left=0;right=0;bottom=0;" parent="bpkwhLDXA1G38Zf4pE7G-29" vertex="1">
          <mxGeometry y="90" width="202" height="30" as="geometry" />
        </mxCell>
        <mxCell id="bpkwhLDXA1G38Zf4pE7G-37" value="datetime" style="shape=partialRectangle;connectable=0;fillColor=none;top=0;left=0;bottom=0;right=0;editable=1;overflow=hidden;whiteSpace=wrap;html=1;" parent="bpkwhLDXA1G38Zf4pE7G-36" vertex="1">
          <mxGeometry width="52" height="30" as="geometry">
            <mxRectangle width="52" height="30" as="alternateBounds" />
          </mxGeometry>
        </mxCell>
        <mxCell id="bpkwhLDXA1G38Zf4pE7G-38" value="created_at" style="shape=partialRectangle;connectable=0;fillColor=none;top=0;left=0;bottom=0;right=0;align=left;spacingLeft=6;overflow=hidden;whiteSpace=wrap;html=1;" parent="bpkwhLDXA1G38Zf4pE7G-36" vertex="1">
          <mxGeometry x="52" width="150" height="30" as="geometry">
            <mxRectangle width="150" height="30" as="alternateBounds" />
          </mxGeometry>
        </mxCell>
        <mxCell id="bpkwhLDXA1G38Zf4pE7G-42" value="" style="edgeStyle=entityRelationEdgeStyle;fontSize=12;html=1;endArrow=ERoneToMany;rounded=0;entryX=1;entryY=0.5;entryDx=0;entryDy=0;exitX=0;exitY=0.5;exitDx=0;exitDy=0;" parent="1" source="bpkwhLDXA1G38Zf4pE7G-30" target="bpkwhLDXA1G38Zf4pE7G-5" edge="1">
          <mxGeometry width="100" height="100" relative="1" as="geometry">
            <mxPoint x="837" y="560" as="sourcePoint" />
            <mxPoint x="937" y="460" as="targetPoint" />
          </mxGeometry>
        </mxCell>
        <mxCell id="bpkwhLDXA1G38Zf4pE7G-57" value="ConnectorPositionRoles" style="shape=table;startSize=30;container=1;collapsible=1;childLayout=tableLayout;fixedRows=1;rowLines=0;fontStyle=1;align=center;resizeLast=1;html=1;" parent="1" vertex="1">
          <mxGeometry x="1197" y="-10" width="180" height="120" as="geometry" />
        </mxCell>
        <mxCell id="bpkwhLDXA1G38Zf4pE7G-58" value="" style="shape=tableRow;horizontal=0;startSize=0;swimlaneHead=0;swimlaneBody=0;fillColor=none;collapsible=0;dropTarget=0;points=[[0,0.5],[1,0.5]];portConstraint=eastwest;top=0;left=0;right=0;bottom=1;" parent="bpkwhLDXA1G38Zf4pE7G-57" vertex="1">
          <mxGeometry y="30" width="180" height="30" as="geometry" />
        </mxCell>
        <mxCell id="bpkwhLDXA1G38Zf4pE7G-59" value="PK_int" style="shape=partialRectangle;connectable=0;fillColor=none;top=0;left=0;bottom=0;right=0;fontStyle=1;overflow=hidden;whiteSpace=wrap;html=1;" parent="bpkwhLDXA1G38Zf4pE7G-58" vertex="1">
          <mxGeometry width="30" height="30" as="geometry">
            <mxRectangle width="30" height="30" as="alternateBounds" />
          </mxGeometry>
        </mxCell>
        <mxCell id="bpkwhLDXA1G38Zf4pE7G-60" value="unique_id" style="shape=partialRectangle;connectable=0;fillColor=none;top=0;left=0;bottom=0;right=0;align=left;spacingLeft=6;fontStyle=5;overflow=hidden;whiteSpace=wrap;html=1;" parent="bpkwhLDXA1G38Zf4pE7G-58" vertex="1">
          <mxGeometry x="30" width="150" height="30" as="geometry">
            <mxRectangle width="150" height="30" as="alternateBounds" />
          </mxGeometry>
        </mxCell>
        <mxCell id="bpkwhLDXA1G38Zf4pE7G-61" value="" style="shape=tableRow;horizontal=0;startSize=0;swimlaneHead=0;swimlaneBody=0;fillColor=none;collapsible=0;dropTarget=0;points=[[0,0.5],[1,0.5]];portConstraint=eastwest;top=0;left=0;right=0;bottom=0;" parent="bpkwhLDXA1G38Zf4pE7G-57" vertex="1">
          <mxGeometry y="60" width="180" height="30" as="geometry" />
        </mxCell>
        <mxCell id="bpkwhLDXA1G38Zf4pE7G-62" value="int" style="shape=partialRectangle;connectable=0;fillColor=none;top=0;left=0;bottom=0;right=0;editable=1;overflow=hidden;whiteSpace=wrap;html=1;" parent="bpkwhLDXA1G38Zf4pE7G-61" vertex="1">
          <mxGeometry width="30" height="30" as="geometry">
            <mxRectangle width="30" height="30" as="alternateBounds" />
          </mxGeometry>
        </mxCell>
        <mxCell id="bpkwhLDXA1G38Zf4pE7G-63" value="permission_id" style="shape=partialRectangle;connectable=0;fillColor=none;top=0;left=0;bottom=0;right=0;align=left;spacingLeft=6;overflow=hidden;whiteSpace=wrap;html=1;" parent="bpkwhLDXA1G38Zf4pE7G-61" vertex="1">
          <mxGeometry x="30" width="150" height="30" as="geometry">
            <mxRectangle width="150" height="30" as="alternateBounds" />
          </mxGeometry>
        </mxCell>
        <mxCell id="bpkwhLDXA1G38Zf4pE7G-64" value="" style="shape=tableRow;horizontal=0;startSize=0;swimlaneHead=0;swimlaneBody=0;fillColor=none;collapsible=0;dropTarget=0;points=[[0,0.5],[1,0.5]];portConstraint=eastwest;top=0;left=0;right=0;bottom=0;" parent="bpkwhLDXA1G38Zf4pE7G-57" vertex="1">
          <mxGeometry y="90" width="180" height="30" as="geometry" />
        </mxCell>
        <mxCell id="bpkwhLDXA1G38Zf4pE7G-65" value="int" style="shape=partialRectangle;connectable=0;fillColor=none;top=0;left=0;bottom=0;right=0;editable=1;overflow=hidden;whiteSpace=wrap;html=1;" parent="bpkwhLDXA1G38Zf4pE7G-64" vertex="1">
          <mxGeometry width="30" height="30" as="geometry">
            <mxRectangle width="30" height="30" as="alternateBounds" />
          </mxGeometry>
        </mxCell>
        <mxCell id="bpkwhLDXA1G38Zf4pE7G-66" value="role_id" style="shape=partialRectangle;connectable=0;fillColor=none;top=0;left=0;bottom=0;right=0;align=left;spacingLeft=6;overflow=hidden;whiteSpace=wrap;html=1;" parent="bpkwhLDXA1G38Zf4pE7G-64" vertex="1">
          <mxGeometry x="30" width="150" height="30" as="geometry">
            <mxRectangle width="150" height="30" as="alternateBounds" />
          </mxGeometry>
        </mxCell>
        <mxCell id="bpkwhLDXA1G38Zf4pE7G-71" value="" style="edgeStyle=entityRelationEdgeStyle;fontSize=12;html=1;endArrow=ERoneToMany;rounded=0;entryX=0;entryY=0.5;entryDx=0;entryDy=0;exitX=1;exitY=0.5;exitDx=0;exitDy=0;" parent="1" source="bpkwhLDXA1G38Zf4pE7G-30" target="bpkwhLDXA1G38Zf4pE7G-64" edge="1">
          <mxGeometry width="100" height="100" relative="1" as="geometry">
            <mxPoint x="897" y="260" as="sourcePoint" />
            <mxPoint x="997" y="160" as="targetPoint" />
            <Array as="points">
              <mxPoint x="1097" y="60" />
            </Array>
          </mxGeometry>
        </mxCell>
        <mxCell id="bpkwhLDXA1G38Zf4pE7G-72" value="Permissions" style="shape=table;startSize=30;container=1;collapsible=1;childLayout=tableLayout;fixedRows=1;rowLines=0;fontStyle=1;align=center;resizeLast=1;html=1;" parent="1" vertex="1">
          <mxGeometry x="1447" y="-10" width="203" height="120" as="geometry" />
        </mxCell>
        <mxCell id="bpkwhLDXA1G38Zf4pE7G-73" value="" style="shape=tableRow;horizontal=0;startSize=0;swimlaneHead=0;swimlaneBody=0;fillColor=none;collapsible=0;dropTarget=0;points=[[0,0.5],[1,0.5]];portConstraint=eastwest;top=0;left=0;right=0;bottom=1;" parent="bpkwhLDXA1G38Zf4pE7G-72" vertex="1">
          <mxGeometry y="30" width="203" height="30" as="geometry" />
        </mxCell>
        <mxCell id="bpkwhLDXA1G38Zf4pE7G-74" value="PK_int" style="shape=partialRectangle;connectable=0;fillColor=none;top=0;left=0;bottom=0;right=0;fontStyle=1;overflow=hidden;whiteSpace=wrap;html=1;" parent="bpkwhLDXA1G38Zf4pE7G-73" vertex="1">
          <mxGeometry width="53" height="30" as="geometry">
            <mxRectangle width="53" height="30" as="alternateBounds" />
          </mxGeometry>
        </mxCell>
        <mxCell id="bpkwhLDXA1G38Zf4pE7G-75" value="permission_id" style="shape=partialRectangle;connectable=0;fillColor=none;top=0;left=0;bottom=0;right=0;align=left;spacingLeft=6;fontStyle=5;overflow=hidden;whiteSpace=wrap;html=1;" parent="bpkwhLDXA1G38Zf4pE7G-73" vertex="1">
          <mxGeometry x="53" width="150" height="30" as="geometry">
            <mxRectangle width="150" height="30" as="alternateBounds" />
          </mxGeometry>
        </mxCell>
        <mxCell id="bpkwhLDXA1G38Zf4pE7G-76" value="" style="shape=tableRow;horizontal=0;startSize=0;swimlaneHead=0;swimlaneBody=0;fillColor=none;collapsible=0;dropTarget=0;points=[[0,0.5],[1,0.5]];portConstraint=eastwest;top=0;left=0;right=0;bottom=0;" parent="bpkwhLDXA1G38Zf4pE7G-72" vertex="1">
          <mxGeometry y="60" width="203" height="30" as="geometry" />
        </mxCell>
        <mxCell id="bpkwhLDXA1G38Zf4pE7G-77" value="varchar" style="shape=partialRectangle;connectable=0;fillColor=none;top=0;left=0;bottom=0;right=0;editable=1;overflow=hidden;whiteSpace=wrap;html=1;" parent="bpkwhLDXA1G38Zf4pE7G-76" vertex="1">
          <mxGeometry width="53" height="30" as="geometry">
            <mxRectangle width="53" height="30" as="alternateBounds" />
          </mxGeometry>
        </mxCell>
        <mxCell id="bpkwhLDXA1G38Zf4pE7G-78" value="permission_name" style="shape=partialRectangle;connectable=0;fillColor=none;top=0;left=0;bottom=0;right=0;align=left;spacingLeft=6;overflow=hidden;whiteSpace=wrap;html=1;" parent="bpkwhLDXA1G38Zf4pE7G-76" vertex="1">
          <mxGeometry x="53" width="150" height="30" as="geometry">
            <mxRectangle width="150" height="30" as="alternateBounds" />
          </mxGeometry>
        </mxCell>
        <mxCell id="bpkwhLDXA1G38Zf4pE7G-79" value="" style="shape=tableRow;horizontal=0;startSize=0;swimlaneHead=0;swimlaneBody=0;fillColor=none;collapsible=0;dropTarget=0;points=[[0,0.5],[1,0.5]];portConstraint=eastwest;top=0;left=0;right=0;bottom=0;" parent="bpkwhLDXA1G38Zf4pE7G-72" vertex="1">
          <mxGeometry y="90" width="203" height="30" as="geometry" />
        </mxCell>
        <mxCell id="bpkwhLDXA1G38Zf4pE7G-80" value="datetime" style="shape=partialRectangle;connectable=0;fillColor=none;top=0;left=0;bottom=0;right=0;editable=1;overflow=hidden;whiteSpace=wrap;html=1;" parent="bpkwhLDXA1G38Zf4pE7G-79" vertex="1">
          <mxGeometry width="53" height="30" as="geometry">
            <mxRectangle width="53" height="30" as="alternateBounds" />
          </mxGeometry>
        </mxCell>
        <mxCell id="bpkwhLDXA1G38Zf4pE7G-81" value="created_at" style="shape=partialRectangle;connectable=0;fillColor=none;top=0;left=0;bottom=0;right=0;align=left;spacingLeft=6;overflow=hidden;whiteSpace=wrap;html=1;" parent="bpkwhLDXA1G38Zf4pE7G-79" vertex="1">
          <mxGeometry x="53" width="150" height="30" as="geometry">
            <mxRectangle width="150" height="30" as="alternateBounds" />
          </mxGeometry>
        </mxCell>
        <mxCell id="bpkwhLDXA1G38Zf4pE7G-85" value="" style="edgeStyle=entityRelationEdgeStyle;fontSize=12;html=1;endArrow=ERoneToMany;rounded=0;entryX=1;entryY=0.31;entryDx=0;entryDy=0;entryPerimeter=0;exitX=0;exitY=0.5;exitDx=0;exitDy=0;" parent="1" source="bpkwhLDXA1G38Zf4pE7G-73" target="bpkwhLDXA1G38Zf4pE7G-61" edge="1">
          <mxGeometry width="100" height="100" relative="1" as="geometry">
            <mxPoint x="1277" y="160" as="sourcePoint" />
            <mxPoint x="1377" y="60" as="targetPoint" />
          </mxGeometry>
        </mxCell>
        <mxCell id="bpkwhLDXA1G38Zf4pE7G-115" value="" style="edgeStyle=entityRelationEdgeStyle;fontSize=12;html=1;endArrow=ERone;endFill=1;rounded=0;entryX=1;entryY=0.5;entryDx=0;entryDy=0;exitX=0;exitY=0.5;exitDx=0;exitDy=0;" parent="1" source="bpkwhLDXA1G38Zf4pE7G-87" target="hupuYRYNH0XxqaEM0Vl5-7" edge="1">
          <mxGeometry width="100" height="100" relative="1" as="geometry">
            <mxPoint x="144" y="370" as="sourcePoint" />
            <mxPoint x="244" y="270" as="targetPoint" />
          </mxGeometry>
        </mxCell>
        <mxCell id="bpkwhLDXA1G38Zf4pE7G-117" value="" style="edgeStyle=entityRelationEdgeStyle;fontSize=12;html=1;endArrow=ERoneToMany;rounded=0;entryX=0;entryY=0.5;entryDx=0;entryDy=0;exitX=1;exitY=0.5;exitDx=0;exitDy=0;" parent="1" source="bpkwhLDXA1G38Zf4pE7G-87" target="bpkwhLDXA1G38Zf4pE7G-8" edge="1">
          <mxGeometry width="100" height="100" relative="1" as="geometry">
            <mxPoint x="537" y="307.5" as="sourcePoint" />
            <mxPoint x="657" y="90" as="targetPoint" />
          </mxGeometry>
        </mxCell>
        <mxCell id="bpkwhLDXA1G38Zf4pE7G-86" value="Users" style="shape=table;startSize=30;container=1;collapsible=1;childLayout=tableLayout;fixedRows=1;rowLines=0;fontStyle=1;align=center;resizeLast=1;html=1;" parent="1" vertex="1">
          <mxGeometry x="377" y="100" width="203" height="270" as="geometry" />
        </mxCell>
        <mxCell id="bpkwhLDXA1G38Zf4pE7G-87" value="" style="shape=tableRow;horizontal=0;startSize=0;swimlaneHead=0;swimlaneBody=0;fillColor=none;collapsible=0;dropTarget=0;points=[[0,0.5],[1,0.5]];portConstraint=eastwest;top=0;left=0;right=0;bottom=1;" parent="bpkwhLDXA1G38Zf4pE7G-86" vertex="1">
          <mxGeometry y="30" width="203" height="30" as="geometry" />
        </mxCell>
        <mxCell id="bpkwhLDXA1G38Zf4pE7G-88" value="PK_int" style="shape=partialRectangle;connectable=0;fillColor=none;top=0;left=0;bottom=0;right=0;fontStyle=1;overflow=hidden;whiteSpace=wrap;html=1;" parent="bpkwhLDXA1G38Zf4pE7G-87" vertex="1">
          <mxGeometry width="53" height="30" as="geometry">
            <mxRectangle width="53" height="30" as="alternateBounds" />
          </mxGeometry>
        </mxCell>
        <mxCell id="bpkwhLDXA1G38Zf4pE7G-89" value="user_id" style="shape=partialRectangle;connectable=0;fillColor=none;top=0;left=0;bottom=0;right=0;align=left;spacingLeft=6;fontStyle=5;overflow=hidden;whiteSpace=wrap;html=1;" parent="bpkwhLDXA1G38Zf4pE7G-87" vertex="1">
          <mxGeometry x="53" width="150" height="30" as="geometry">
            <mxRectangle width="150" height="30" as="alternateBounds" />
          </mxGeometry>
        </mxCell>
        <mxCell id="bpkwhLDXA1G38Zf4pE7G-90" value="" style="shape=tableRow;horizontal=0;startSize=0;swimlaneHead=0;swimlaneBody=0;fillColor=none;collapsible=0;dropTarget=0;points=[[0,0.5],[1,0.5]];portConstraint=eastwest;top=0;left=0;right=0;bottom=0;" parent="bpkwhLDXA1G38Zf4pE7G-86" vertex="1">
          <mxGeometry y="60" width="203" height="30" as="geometry" />
        </mxCell>
        <mxCell id="bpkwhLDXA1G38Zf4pE7G-91" value="varchar" style="shape=partialRectangle;connectable=0;fillColor=none;top=0;left=0;bottom=0;right=0;editable=1;overflow=hidden;whiteSpace=wrap;html=1;" parent="bpkwhLDXA1G38Zf4pE7G-90" vertex="1">
          <mxGeometry width="53" height="30" as="geometry">
            <mxRectangle width="53" height="30" as="alternateBounds" />
          </mxGeometry>
        </mxCell>
        <mxCell id="bpkwhLDXA1G38Zf4pE7G-92" value="user_name" style="shape=partialRectangle;connectable=0;fillColor=none;top=0;left=0;bottom=0;right=0;align=left;spacingLeft=6;overflow=hidden;whiteSpace=wrap;html=1;" parent="bpkwhLDXA1G38Zf4pE7G-90" vertex="1">
          <mxGeometry x="53" width="150" height="30" as="geometry">
            <mxRectangle width="150" height="30" as="alternateBounds" />
          </mxGeometry>
        </mxCell>
        <mxCell id="bpkwhLDXA1G38Zf4pE7G-93" value="" style="shape=tableRow;horizontal=0;startSize=0;swimlaneHead=0;swimlaneBody=0;fillColor=none;collapsible=0;dropTarget=0;points=[[0,0.5],[1,0.5]];portConstraint=eastwest;top=0;left=0;right=0;bottom=0;" parent="bpkwhLDXA1G38Zf4pE7G-86" vertex="1">
          <mxGeometry y="90" width="203" height="30" as="geometry" />
        </mxCell>
        <mxCell id="bpkwhLDXA1G38Zf4pE7G-94" value="varchar" style="shape=partialRectangle;connectable=0;fillColor=none;top=0;left=0;bottom=0;right=0;editable=1;overflow=hidden;whiteSpace=wrap;html=1;" parent="bpkwhLDXA1G38Zf4pE7G-93" vertex="1">
          <mxGeometry width="53" height="30" as="geometry">
            <mxRectangle width="53" height="30" as="alternateBounds" />
          </mxGeometry>
        </mxCell>
        <mxCell id="bpkwhLDXA1G38Zf4pE7G-95" value="user_type" style="shape=partialRectangle;connectable=0;fillColor=none;top=0;left=0;bottom=0;right=0;align=left;spacingLeft=6;overflow=hidden;whiteSpace=wrap;html=1;" parent="bpkwhLDXA1G38Zf4pE7G-93" vertex="1">
          <mxGeometry x="53" width="150" height="30" as="geometry">
            <mxRectangle width="150" height="30" as="alternateBounds" />
          </mxGeometry>
        </mxCell>
        <mxCell id="bpkwhLDXA1G38Zf4pE7G-96" value="" style="shape=tableRow;horizontal=0;startSize=0;swimlaneHead=0;swimlaneBody=0;fillColor=none;collapsible=0;dropTarget=0;points=[[0,0.5],[1,0.5]];portConstraint=eastwest;top=0;left=0;right=0;bottom=0;" parent="bpkwhLDXA1G38Zf4pE7G-86" vertex="1">
          <mxGeometry y="120" width="203" height="30" as="geometry" />
        </mxCell>
        <mxCell id="bpkwhLDXA1G38Zf4pE7G-97" value="???" style="shape=partialRectangle;connectable=0;fillColor=none;top=0;left=0;bottom=0;right=0;editable=1;overflow=hidden;whiteSpace=wrap;html=1;" parent="bpkwhLDXA1G38Zf4pE7G-96" vertex="1">
          <mxGeometry width="53" height="30" as="geometry">
            <mxRectangle width="53" height="30" as="alternateBounds" />
          </mxGeometry>
        </mxCell>
        <mxCell id="bpkwhLDXA1G38Zf4pE7G-98" value="email" style="shape=partialRectangle;connectable=0;fillColor=none;top=0;left=0;bottom=0;right=0;align=left;spacingLeft=6;overflow=hidden;whiteSpace=wrap;html=1;" parent="bpkwhLDXA1G38Zf4pE7G-96" vertex="1">
          <mxGeometry x="53" width="150" height="30" as="geometry">
            <mxRectangle width="150" height="30" as="alternateBounds" />
          </mxGeometry>
        </mxCell>
        <mxCell id="bpkwhLDXA1G38Zf4pE7G-99" value="" style="shape=tableRow;horizontal=0;startSize=0;swimlaneHead=0;swimlaneBody=0;fillColor=none;collapsible=0;dropTarget=0;points=[[0,0.5],[1,0.5]];portConstraint=eastwest;top=0;left=0;right=0;bottom=0;" parent="bpkwhLDXA1G38Zf4pE7G-86" vertex="1">
          <mxGeometry y="150" width="203" height="30" as="geometry" />
        </mxCell>
        <mxCell id="bpkwhLDXA1G38Zf4pE7G-100" value="varchar" style="shape=partialRectangle;connectable=0;fillColor=none;top=0;left=0;bottom=0;right=0;editable=1;overflow=hidden;whiteSpace=wrap;html=1;" parent="bpkwhLDXA1G38Zf4pE7G-99" vertex="1">
          <mxGeometry width="53" height="30" as="geometry">
            <mxRectangle width="53" height="30" as="alternateBounds" />
          </mxGeometry>
        </mxCell>
        <mxCell id="bpkwhLDXA1G38Zf4pE7G-101" value="user_firstname" style="shape=partialRectangle;connectable=0;fillColor=none;top=0;left=0;bottom=0;right=0;align=left;spacingLeft=6;overflow=hidden;whiteSpace=wrap;html=1;" parent="bpkwhLDXA1G38Zf4pE7G-99" vertex="1">
          <mxGeometry x="53" width="150" height="30" as="geometry">
            <mxRectangle width="150" height="30" as="alternateBounds" />
          </mxGeometry>
        </mxCell>
        <mxCell id="bpkwhLDXA1G38Zf4pE7G-102" value="" style="shape=tableRow;horizontal=0;startSize=0;swimlaneHead=0;swimlaneBody=0;fillColor=none;collapsible=0;dropTarget=0;points=[[0,0.5],[1,0.5]];portConstraint=eastwest;top=0;left=0;right=0;bottom=0;" parent="bpkwhLDXA1G38Zf4pE7G-86" vertex="1">
          <mxGeometry y="180" width="203" height="30" as="geometry" />
        </mxCell>
        <mxCell id="bpkwhLDXA1G38Zf4pE7G-103" value="varchar" style="shape=partialRectangle;connectable=0;fillColor=none;top=0;left=0;bottom=0;right=0;editable=1;overflow=hidden;whiteSpace=wrap;html=1;" parent="bpkwhLDXA1G38Zf4pE7G-102" vertex="1">
          <mxGeometry width="53" height="30" as="geometry">
            <mxRectangle width="53" height="30" as="alternateBounds" />
          </mxGeometry>
        </mxCell>
        <mxCell id="bpkwhLDXA1G38Zf4pE7G-104" value="user_lastname" style="shape=partialRectangle;connectable=0;fillColor=none;top=0;left=0;bottom=0;right=0;align=left;spacingLeft=6;overflow=hidden;whiteSpace=wrap;html=1;" parent="bpkwhLDXA1G38Zf4pE7G-102" vertex="1">
          <mxGeometry x="53" width="150" height="30" as="geometry">
            <mxRectangle width="150" height="30" as="alternateBounds" />
          </mxGeometry>
        </mxCell>
        <mxCell id="bpkwhLDXA1G38Zf4pE7G-105" value="" style="shape=tableRow;horizontal=0;startSize=0;swimlaneHead=0;swimlaneBody=0;fillColor=none;collapsible=0;dropTarget=0;points=[[0,0.5],[1,0.5]];portConstraint=eastwest;top=0;left=0;right=0;bottom=0;" parent="bpkwhLDXA1G38Zf4pE7G-86" vertex="1">
          <mxGeometry y="210" width="203" height="30" as="geometry" />
        </mxCell>
        <mxCell id="bpkwhLDXA1G38Zf4pE7G-106" value="varchar" style="shape=partialRectangle;connectable=0;fillColor=none;top=0;left=0;bottom=0;right=0;editable=1;overflow=hidden;whiteSpace=wrap;html=1;" parent="bpkwhLDXA1G38Zf4pE7G-105" vertex="1">
          <mxGeometry width="53" height="30" as="geometry">
            <mxRectangle width="53" height="30" as="alternateBounds" />
          </mxGeometry>
        </mxCell>
        <mxCell id="bpkwhLDXA1G38Zf4pE7G-107" value="user_status" style="shape=partialRectangle;connectable=0;fillColor=none;top=0;left=0;bottom=0;right=0;align=left;spacingLeft=6;overflow=hidden;whiteSpace=wrap;html=1;" parent="bpkwhLDXA1G38Zf4pE7G-105" vertex="1">
          <mxGeometry x="53" width="150" height="30" as="geometry">
            <mxRectangle width="150" height="30" as="alternateBounds" />
          </mxGeometry>
        </mxCell>
        <mxCell id="bpkwhLDXA1G38Zf4pE7G-108" value="" style="shape=tableRow;horizontal=0;startSize=0;swimlaneHead=0;swimlaneBody=0;fillColor=none;collapsible=0;dropTarget=0;points=[[0,0.5],[1,0.5]];portConstraint=eastwest;top=0;left=0;right=0;bottom=0;" parent="bpkwhLDXA1G38Zf4pE7G-86" vertex="1">
          <mxGeometry y="240" width="203" height="30" as="geometry" />
        </mxCell>
        <mxCell id="bpkwhLDXA1G38Zf4pE7G-109" value="datetime" style="shape=partialRectangle;connectable=0;fillColor=none;top=0;left=0;bottom=0;right=0;editable=1;overflow=hidden;whiteSpace=wrap;html=1;" parent="bpkwhLDXA1G38Zf4pE7G-108" vertex="1">
          <mxGeometry width="53" height="30" as="geometry">
            <mxRectangle width="53" height="30" as="alternateBounds" />
          </mxGeometry>
        </mxCell>
        <mxCell id="bpkwhLDXA1G38Zf4pE7G-110" value="created_at" style="shape=partialRectangle;connectable=0;fillColor=none;top=0;left=0;bottom=0;right=0;align=left;spacingLeft=6;overflow=hidden;whiteSpace=wrap;html=1;" parent="bpkwhLDXA1G38Zf4pE7G-108" vertex="1">
          <mxGeometry x="53" width="150" height="30" as="geometry">
            <mxRectangle width="150" height="30" as="alternateBounds" />
          </mxGeometry>
        </mxCell>
        <mxCell id="bpkwhLDXA1G38Zf4pE7G-118" value="ResultLogs" style="shape=table;startSize=30;container=1;collapsible=1;childLayout=tableLayout;fixedRows=1;rowLines=0;fontStyle=1;align=center;resizeLast=1;html=1;" parent="1" vertex="1">
          <mxGeometry x="37" y="-270" width="192" height="210" as="geometry" />
        </mxCell>
        <mxCell id="bpkwhLDXA1G38Zf4pE7G-119" value="" style="shape=tableRow;horizontal=0;startSize=0;swimlaneHead=0;swimlaneBody=0;fillColor=none;collapsible=0;dropTarget=0;points=[[0,0.5],[1,0.5]];portConstraint=eastwest;top=0;left=0;right=0;bottom=1;" parent="bpkwhLDXA1G38Zf4pE7G-118" vertex="1">
          <mxGeometry y="30" width="192" height="30" as="geometry" />
        </mxCell>
        <mxCell id="bpkwhLDXA1G38Zf4pE7G-120" value="PK_int" style="shape=partialRectangle;connectable=0;fillColor=none;top=0;left=0;bottom=0;right=0;fontStyle=1;overflow=hidden;whiteSpace=wrap;html=1;" parent="bpkwhLDXA1G38Zf4pE7G-119" vertex="1">
          <mxGeometry width="42" height="30" as="geometry">
            <mxRectangle width="42" height="30" as="alternateBounds" />
          </mxGeometry>
        </mxCell>
        <mxCell id="bpkwhLDXA1G38Zf4pE7G-121" value="result_log_id" style="shape=partialRectangle;connectable=0;fillColor=none;top=0;left=0;bottom=0;right=0;align=left;spacingLeft=6;fontStyle=5;overflow=hidden;whiteSpace=wrap;html=1;" parent="bpkwhLDXA1G38Zf4pE7G-119" vertex="1">
          <mxGeometry x="42" width="150" height="30" as="geometry">
            <mxRectangle width="150" height="30" as="alternateBounds" />
          </mxGeometry>
        </mxCell>
        <mxCell id="bpkwhLDXA1G38Zf4pE7G-122" value="" style="shape=tableRow;horizontal=0;startSize=0;swimlaneHead=0;swimlaneBody=0;fillColor=none;collapsible=0;dropTarget=0;points=[[0,0.5],[1,0.5]];portConstraint=eastwest;top=0;left=0;right=0;bottom=0;" parent="bpkwhLDXA1G38Zf4pE7G-118" vertex="1">
          <mxGeometry y="60" width="192" height="30" as="geometry" />
        </mxCell>
        <mxCell id="bpkwhLDXA1G38Zf4pE7G-123" value="int" style="shape=partialRectangle;connectable=0;fillColor=none;top=0;left=0;bottom=0;right=0;editable=1;overflow=hidden;whiteSpace=wrap;html=1;" parent="bpkwhLDXA1G38Zf4pE7G-122" vertex="1">
          <mxGeometry width="42" height="30" as="geometry">
            <mxRectangle width="42" height="30" as="alternateBounds" />
          </mxGeometry>
        </mxCell>
        <mxCell id="bpkwhLDXA1G38Zf4pE7G-124" value="variable_log_id" style="shape=partialRectangle;connectable=0;fillColor=none;top=0;left=0;bottom=0;right=0;align=left;spacingLeft=6;overflow=hidden;whiteSpace=wrap;html=1;" parent="bpkwhLDXA1G38Zf4pE7G-122" vertex="1">
          <mxGeometry x="42" width="150" height="30" as="geometry">
            <mxRectangle width="150" height="30" as="alternateBounds" />
          </mxGeometry>
        </mxCell>
        <mxCell id="vEl4SPJRhOZtvg5Nzdzx-38" value="" style="shape=tableRow;horizontal=0;startSize=0;swimlaneHead=0;swimlaneBody=0;fillColor=none;collapsible=0;dropTarget=0;points=[[0,0.5],[1,0.5]];portConstraint=eastwest;top=0;left=0;right=0;bottom=0;" parent="bpkwhLDXA1G38Zf4pE7G-118" vertex="1">
          <mxGeometry y="90" width="192" height="30" as="geometry" />
        </mxCell>
        <mxCell id="vEl4SPJRhOZtvg5Nzdzx-39" value="vacrhar" style="shape=partialRectangle;connectable=0;fillColor=none;top=0;left=0;bottom=0;right=0;editable=1;overflow=hidden;whiteSpace=wrap;html=1;" parent="vEl4SPJRhOZtvg5Nzdzx-38" vertex="1">
          <mxGeometry width="42" height="30" as="geometry">
            <mxRectangle width="42" height="30" as="alternateBounds" />
          </mxGeometry>
        </mxCell>
        <mxCell id="vEl4SPJRhOZtvg5Nzdzx-40" value="status" style="shape=partialRectangle;connectable=0;fillColor=none;top=0;left=0;bottom=0;right=0;align=left;spacingLeft=6;overflow=hidden;whiteSpace=wrap;html=1;" parent="vEl4SPJRhOZtvg5Nzdzx-38" vertex="1">
          <mxGeometry x="42" width="150" height="30" as="geometry">
            <mxRectangle width="150" height="30" as="alternateBounds" />
          </mxGeometry>
        </mxCell>
        <mxCell id="vEl4SPJRhOZtvg5Nzdzx-41" value="" style="shape=tableRow;horizontal=0;startSize=0;swimlaneHead=0;swimlaneBody=0;fillColor=none;collapsible=0;dropTarget=0;points=[[0,0.5],[1,0.5]];portConstraint=eastwest;top=0;left=0;right=0;bottom=0;" parent="bpkwhLDXA1G38Zf4pE7G-118" vertex="1">
          <mxGeometry y="120" width="192" height="30" as="geometry" />
        </mxCell>
        <mxCell id="vEl4SPJRhOZtvg5Nzdzx-42" value="text" style="shape=partialRectangle;connectable=0;fillColor=none;top=0;left=0;bottom=0;right=0;editable=1;overflow=hidden;whiteSpace=wrap;html=1;" parent="vEl4SPJRhOZtvg5Nzdzx-41" vertex="1">
          <mxGeometry width="42" height="30" as="geometry">
            <mxRectangle width="42" height="30" as="alternateBounds" />
          </mxGeometry>
        </mxCell>
        <mxCell id="vEl4SPJRhOZtvg5Nzdzx-43" value="detailed_message" style="shape=partialRectangle;connectable=0;fillColor=none;top=0;left=0;bottom=0;right=0;align=left;spacingLeft=6;overflow=hidden;whiteSpace=wrap;html=1;" parent="vEl4SPJRhOZtvg5Nzdzx-41" vertex="1">
          <mxGeometry x="42" width="150" height="30" as="geometry">
            <mxRectangle width="150" height="30" as="alternateBounds" />
          </mxGeometry>
        </mxCell>
        <mxCell id="vEl4SPJRhOZtvg5Nzdzx-44" value="" style="shape=tableRow;horizontal=0;startSize=0;swimlaneHead=0;swimlaneBody=0;fillColor=none;collapsible=0;dropTarget=0;points=[[0,0.5],[1,0.5]];portConstraint=eastwest;top=0;left=0;right=0;bottom=0;" parent="bpkwhLDXA1G38Zf4pE7G-118" vertex="1">
          <mxGeometry y="150" width="192" height="30" as="geometry" />
        </mxCell>
        <mxCell id="vEl4SPJRhOZtvg5Nzdzx-45" value="int" style="shape=partialRectangle;connectable=0;fillColor=none;top=0;left=0;bottom=0;right=0;editable=1;overflow=hidden;whiteSpace=wrap;html=1;" parent="vEl4SPJRhOZtvg5Nzdzx-44" vertex="1">
          <mxGeometry width="42" height="30" as="geometry">
            <mxRectangle width="42" height="30" as="alternateBounds" />
          </mxGeometry>
        </mxCell>
        <mxCell id="vEl4SPJRhOZtvg5Nzdzx-46" value="execution_time_ms" style="shape=partialRectangle;connectable=0;fillColor=none;top=0;left=0;bottom=0;right=0;align=left;spacingLeft=6;overflow=hidden;whiteSpace=wrap;html=1;" parent="vEl4SPJRhOZtvg5Nzdzx-44" vertex="1">
          <mxGeometry x="42" width="150" height="30" as="geometry">
            <mxRectangle width="150" height="30" as="alternateBounds" />
          </mxGeometry>
        </mxCell>
        <mxCell id="vEl4SPJRhOZtvg5Nzdzx-47" value="" style="shape=tableRow;horizontal=0;startSize=0;swimlaneHead=0;swimlaneBody=0;fillColor=none;collapsible=0;dropTarget=0;points=[[0,0.5],[1,0.5]];portConstraint=eastwest;top=0;left=0;right=0;bottom=0;" parent="bpkwhLDXA1G38Zf4pE7G-118" vertex="1">
          <mxGeometry y="180" width="192" height="30" as="geometry" />
        </mxCell>
        <mxCell id="vEl4SPJRhOZtvg5Nzdzx-48" value="datetime" style="shape=partialRectangle;connectable=0;fillColor=none;top=0;left=0;bottom=0;right=0;editable=1;overflow=hidden;whiteSpace=wrap;html=1;" parent="vEl4SPJRhOZtvg5Nzdzx-47" vertex="1">
          <mxGeometry width="42" height="30" as="geometry">
            <mxRectangle width="42" height="30" as="alternateBounds" />
          </mxGeometry>
        </mxCell>
        <mxCell id="vEl4SPJRhOZtvg5Nzdzx-49" value="created_at" style="shape=partialRectangle;connectable=0;fillColor=none;top=0;left=0;bottom=0;right=0;align=left;spacingLeft=6;overflow=hidden;whiteSpace=wrap;html=1;" parent="vEl4SPJRhOZtvg5Nzdzx-47" vertex="1">
          <mxGeometry x="42" width="150" height="30" as="geometry">
            <mxRectangle width="150" height="30" as="alternateBounds" />
          </mxGeometry>
        </mxCell>
        <mxCell id="bpkwhLDXA1G38Zf4pE7G-131" value="SystemLogs" style="shape=table;startSize=30;container=1;collapsible=1;childLayout=tableLayout;fixedRows=1;rowLines=0;fontStyle=1;align=center;resizeLast=1;html=1;" parent="1" vertex="1">
          <mxGeometry x="667" y="330" width="202" height="210" as="geometry" />
        </mxCell>
        <mxCell id="bpkwhLDXA1G38Zf4pE7G-132" value="" style="shape=tableRow;horizontal=0;startSize=0;swimlaneHead=0;swimlaneBody=0;fillColor=none;collapsible=0;dropTarget=0;points=[[0,0.5],[1,0.5]];portConstraint=eastwest;top=0;left=0;right=0;bottom=1;" parent="bpkwhLDXA1G38Zf4pE7G-131" vertex="1">
          <mxGeometry y="30" width="202" height="30" as="geometry" />
        </mxCell>
        <mxCell id="bpkwhLDXA1G38Zf4pE7G-133" value="PK_int" style="shape=partialRectangle;connectable=0;fillColor=none;top=0;left=0;bottom=0;right=0;fontStyle=1;overflow=hidden;whiteSpace=wrap;html=1;" parent="bpkwhLDXA1G38Zf4pE7G-132" vertex="1">
          <mxGeometry width="52" height="30" as="geometry">
            <mxRectangle width="52" height="30" as="alternateBounds" />
          </mxGeometry>
        </mxCell>
        <mxCell id="bpkwhLDXA1G38Zf4pE7G-134" value="system_log_id" style="shape=partialRectangle;connectable=0;fillColor=none;top=0;left=0;bottom=0;right=0;align=left;spacingLeft=6;fontStyle=5;overflow=hidden;whiteSpace=wrap;html=1;" parent="bpkwhLDXA1G38Zf4pE7G-132" vertex="1">
          <mxGeometry x="52" width="150" height="30" as="geometry">
            <mxRectangle width="150" height="30" as="alternateBounds" />
          </mxGeometry>
        </mxCell>
        <mxCell id="bpkwhLDXA1G38Zf4pE7G-135" value="" style="shape=tableRow;horizontal=0;startSize=0;swimlaneHead=0;swimlaneBody=0;fillColor=none;collapsible=0;dropTarget=0;points=[[0,0.5],[1,0.5]];portConstraint=eastwest;top=0;left=0;right=0;bottom=0;" parent="bpkwhLDXA1G38Zf4pE7G-131" vertex="1">
          <mxGeometry y="60" width="202" height="30" as="geometry" />
        </mxCell>
        <mxCell id="bpkwhLDXA1G38Zf4pE7G-136" value="varchar" style="shape=partialRectangle;connectable=0;fillColor=none;top=0;left=0;bottom=0;right=0;editable=1;overflow=hidden;whiteSpace=wrap;html=1;" parent="bpkwhLDXA1G38Zf4pE7G-135" vertex="1">
          <mxGeometry width="52" height="30" as="geometry">
            <mxRectangle width="52" height="30" as="alternateBounds" />
          </mxGeometry>
        </mxCell>
        <mxCell id="bpkwhLDXA1G38Zf4pE7G-137" value="event_type" style="shape=partialRectangle;connectable=0;fillColor=none;top=0;left=0;bottom=0;right=0;align=left;spacingLeft=6;overflow=hidden;whiteSpace=wrap;html=1;" parent="bpkwhLDXA1G38Zf4pE7G-135" vertex="1">
          <mxGeometry x="52" width="150" height="30" as="geometry">
            <mxRectangle width="150" height="30" as="alternateBounds" />
          </mxGeometry>
        </mxCell>
        <mxCell id="vEl4SPJRhOZtvg5Nzdzx-1" value="" style="shape=tableRow;horizontal=0;startSize=0;swimlaneHead=0;swimlaneBody=0;fillColor=none;collapsible=0;dropTarget=0;points=[[0,0.5],[1,0.5]];portConstraint=eastwest;top=0;left=0;right=0;bottom=0;" parent="bpkwhLDXA1G38Zf4pE7G-131" vertex="1">
          <mxGeometry y="90" width="202" height="30" as="geometry" />
        </mxCell>
        <mxCell id="vEl4SPJRhOZtvg5Nzdzx-2" value="varchar" style="shape=partialRectangle;connectable=0;fillColor=none;top=0;left=0;bottom=0;right=0;editable=1;overflow=hidden;whiteSpace=wrap;html=1;" parent="vEl4SPJRhOZtvg5Nzdzx-1" vertex="1">
          <mxGeometry width="52" height="30" as="geometry">
            <mxRectangle width="52" height="30" as="alternateBounds" />
          </mxGeometry>
        </mxCell>
        <mxCell id="vEl4SPJRhOZtvg5Nzdzx-3" value="component" style="shape=partialRectangle;connectable=0;fillColor=none;top=0;left=0;bottom=0;right=0;align=left;spacingLeft=6;overflow=hidden;whiteSpace=wrap;html=1;" parent="vEl4SPJRhOZtvg5Nzdzx-1" vertex="1">
          <mxGeometry x="52" width="150" height="30" as="geometry">
            <mxRectangle width="150" height="30" as="alternateBounds" />
          </mxGeometry>
        </mxCell>
        <mxCell id="vEl4SPJRhOZtvg5Nzdzx-4" value="" style="shape=tableRow;horizontal=0;startSize=0;swimlaneHead=0;swimlaneBody=0;fillColor=none;collapsible=0;dropTarget=0;points=[[0,0.5],[1,0.5]];portConstraint=eastwest;top=0;left=0;right=0;bottom=0;" parent="bpkwhLDXA1G38Zf4pE7G-131" vertex="1">
          <mxGeometry y="120" width="202" height="30" as="geometry" />
        </mxCell>
        <mxCell id="vEl4SPJRhOZtvg5Nzdzx-5" value="text" style="shape=partialRectangle;connectable=0;fillColor=none;top=0;left=0;bottom=0;right=0;editable=1;overflow=hidden;whiteSpace=wrap;html=1;" parent="vEl4SPJRhOZtvg5Nzdzx-4" vertex="1">
          <mxGeometry width="52" height="30" as="geometry">
            <mxRectangle width="52" height="30" as="alternateBounds" />
          </mxGeometry>
        </mxCell>
        <mxCell id="vEl4SPJRhOZtvg5Nzdzx-6" value="event_message" style="shape=partialRectangle;connectable=0;fillColor=none;top=0;left=0;bottom=0;right=0;align=left;spacingLeft=6;overflow=hidden;whiteSpace=wrap;html=1;" parent="vEl4SPJRhOZtvg5Nzdzx-4" vertex="1">
          <mxGeometry x="52" width="150" height="30" as="geometry">
            <mxRectangle width="150" height="30" as="alternateBounds" />
          </mxGeometry>
        </mxCell>
        <mxCell id="vEl4SPJRhOZtvg5Nzdzx-7" value="" style="shape=tableRow;horizontal=0;startSize=0;swimlaneHead=0;swimlaneBody=0;fillColor=none;collapsible=0;dropTarget=0;points=[[0,0.5],[1,0.5]];portConstraint=eastwest;top=0;left=0;right=0;bottom=0;" parent="bpkwhLDXA1G38Zf4pE7G-131" vertex="1">
          <mxGeometry y="150" width="202" height="30" as="geometry" />
        </mxCell>
        <mxCell id="vEl4SPJRhOZtvg5Nzdzx-8" value="int" style="shape=partialRectangle;connectable=0;fillColor=none;top=0;left=0;bottom=0;right=0;editable=1;overflow=hidden;whiteSpace=wrap;html=1;" parent="vEl4SPJRhOZtvg5Nzdzx-7" vertex="1">
          <mxGeometry width="52" height="30" as="geometry">
            <mxRectangle width="52" height="30" as="alternateBounds" />
          </mxGeometry>
        </mxCell>
        <mxCell id="vEl4SPJRhOZtvg5Nzdzx-9" value="related_user_id" style="shape=partialRectangle;connectable=0;fillColor=none;top=0;left=0;bottom=0;right=0;align=left;spacingLeft=6;overflow=hidden;whiteSpace=wrap;html=1;" parent="vEl4SPJRhOZtvg5Nzdzx-7" vertex="1">
          <mxGeometry x="52" width="150" height="30" as="geometry">
            <mxRectangle width="150" height="30" as="alternateBounds" />
          </mxGeometry>
        </mxCell>
        <mxCell id="vEl4SPJRhOZtvg5Nzdzx-11" value="" style="shape=tableRow;horizontal=0;startSize=0;swimlaneHead=0;swimlaneBody=0;fillColor=none;collapsible=0;dropTarget=0;points=[[0,0.5],[1,0.5]];portConstraint=eastwest;top=0;left=0;right=0;bottom=0;" parent="bpkwhLDXA1G38Zf4pE7G-131" vertex="1">
          <mxGeometry y="180" width="202" height="30" as="geometry" />
        </mxCell>
        <mxCell id="vEl4SPJRhOZtvg5Nzdzx-12" value="datetime" style="shape=partialRectangle;connectable=0;fillColor=none;top=0;left=0;bottom=0;right=0;editable=1;overflow=hidden;whiteSpace=wrap;html=1;" parent="vEl4SPJRhOZtvg5Nzdzx-11" vertex="1">
          <mxGeometry width="52" height="30" as="geometry">
            <mxRectangle width="52" height="30" as="alternateBounds" />
          </mxGeometry>
        </mxCell>
        <mxCell id="vEl4SPJRhOZtvg5Nzdzx-13" value="created_at" style="shape=partialRectangle;connectable=0;fillColor=none;top=0;left=0;bottom=0;right=0;align=left;spacingLeft=6;overflow=hidden;whiteSpace=wrap;html=1;" parent="vEl4SPJRhOZtvg5Nzdzx-11" vertex="1">
          <mxGeometry x="52" width="150" height="30" as="geometry">
            <mxRectangle width="150" height="30" as="alternateBounds" />
          </mxGeometry>
        </mxCell>
        <mxCell id="vEl4SPJRhOZtvg5Nzdzx-10" value="" style="edgeStyle=entityRelationEdgeStyle;fontSize=12;html=1;endArrow=ERoneToMany;rounded=0;entryX=0;entryY=0.277;entryDx=0;entryDy=0;entryPerimeter=0;exitX=1;exitY=0.5;exitDx=0;exitDy=0;" parent="1" source="bpkwhLDXA1G38Zf4pE7G-87" target="vEl4SPJRhOZtvg5Nzdzx-7" edge="1">
          <mxGeometry width="100" height="100" relative="1" as="geometry">
            <mxPoint x="457" y="740" as="sourcePoint" />
            <mxPoint x="557" y="640" as="targetPoint" />
          </mxGeometry>
        </mxCell>
        <mxCell id="vEl4SPJRhOZtvg5Nzdzx-27" value="" style="edgeStyle=entityRelationEdgeStyle;fontSize=12;html=1;endArrow=ERoneToMany;rounded=0;entryX=1;entryY=0.5;entryDx=0;entryDy=0;" parent="1" target="bpkwhLDXA1G38Zf4pE7G-122" edge="1">
          <mxGeometry width="100" height="100" relative="1" as="geometry">
            <mxPoint x="247" y="95" as="sourcePoint" />
            <mxPoint x="597" y="660" as="targetPoint" />
            <Array as="points">
              <mxPoint x="287" y="-70" />
            </Array>
          </mxGeometry>
        </mxCell>
        <mxCell id="vEl4SPJRhOZtvg5Nzdzx-50" value="AuditTrail" style="shape=table;startSize=30;container=1;collapsible=1;childLayout=tableLayout;fixedRows=1;rowLines=0;fontStyle=1;align=center;resizeLast=1;html=1;" parent="1" vertex="1">
          <mxGeometry x="347" y="630" width="200" height="270" as="geometry" />
        </mxCell>
        <mxCell id="vEl4SPJRhOZtvg5Nzdzx-51" value="" style="shape=tableRow;horizontal=0;startSize=0;swimlaneHead=0;swimlaneBody=0;fillColor=none;collapsible=0;dropTarget=0;points=[[0,0.5],[1,0.5]];portConstraint=eastwest;top=0;left=0;right=0;bottom=1;" parent="vEl4SPJRhOZtvg5Nzdzx-50" vertex="1">
          <mxGeometry y="30" width="200" height="30" as="geometry" />
        </mxCell>
        <mxCell id="vEl4SPJRhOZtvg5Nzdzx-52" value="PK_int" style="shape=partialRectangle;connectable=0;fillColor=none;top=0;left=0;bottom=0;right=0;fontStyle=1;overflow=hidden;whiteSpace=wrap;html=1;" parent="vEl4SPJRhOZtvg5Nzdzx-51" vertex="1">
          <mxGeometry width="50" height="30" as="geometry">
            <mxRectangle width="50" height="30" as="alternateBounds" />
          </mxGeometry>
        </mxCell>
        <mxCell id="vEl4SPJRhOZtvg5Nzdzx-53" value="audit_id" style="shape=partialRectangle;connectable=0;fillColor=none;top=0;left=0;bottom=0;right=0;align=left;spacingLeft=6;fontStyle=5;overflow=hidden;whiteSpace=wrap;html=1;" parent="vEl4SPJRhOZtvg5Nzdzx-51" vertex="1">
          <mxGeometry x="50" width="150" height="30" as="geometry">
            <mxRectangle width="150" height="30" as="alternateBounds" />
          </mxGeometry>
        </mxCell>
        <mxCell id="vEl4SPJRhOZtvg5Nzdzx-54" value="" style="shape=tableRow;horizontal=0;startSize=0;swimlaneHead=0;swimlaneBody=0;fillColor=none;collapsible=0;dropTarget=0;points=[[0,0.5],[1,0.5]];portConstraint=eastwest;top=0;left=0;right=0;bottom=0;" parent="vEl4SPJRhOZtvg5Nzdzx-50" vertex="1">
          <mxGeometry y="60" width="200" height="30" as="geometry" />
        </mxCell>
        <mxCell id="vEl4SPJRhOZtvg5Nzdzx-55" value="varchar" style="shape=partialRectangle;connectable=0;fillColor=none;top=0;left=0;bottom=0;right=0;editable=1;overflow=hidden;whiteSpace=wrap;html=1;" parent="vEl4SPJRhOZtvg5Nzdzx-54" vertex="1">
          <mxGeometry width="50" height="30" as="geometry">
            <mxRectangle width="50" height="30" as="alternateBounds" />
          </mxGeometry>
        </mxCell>
        <mxCell id="vEl4SPJRhOZtvg5Nzdzx-56" value="entity_name" style="shape=partialRectangle;connectable=0;fillColor=none;top=0;left=0;bottom=0;right=0;align=left;spacingLeft=6;overflow=hidden;whiteSpace=wrap;html=1;" parent="vEl4SPJRhOZtvg5Nzdzx-54" vertex="1">
          <mxGeometry x="50" width="150" height="30" as="geometry">
            <mxRectangle width="150" height="30" as="alternateBounds" />
          </mxGeometry>
        </mxCell>
        <mxCell id="vEl4SPJRhOZtvg5Nzdzx-57" value="" style="shape=tableRow;horizontal=0;startSize=0;swimlaneHead=0;swimlaneBody=0;fillColor=none;collapsible=0;dropTarget=0;points=[[0,0.5],[1,0.5]];portConstraint=eastwest;top=0;left=0;right=0;bottom=0;" parent="vEl4SPJRhOZtvg5Nzdzx-50" vertex="1">
          <mxGeometry y="90" width="200" height="30" as="geometry" />
        </mxCell>
        <mxCell id="vEl4SPJRhOZtvg5Nzdzx-58" value="int" style="shape=partialRectangle;connectable=0;fillColor=none;top=0;left=0;bottom=0;right=0;editable=1;overflow=hidden;whiteSpace=wrap;html=1;" parent="vEl4SPJRhOZtvg5Nzdzx-57" vertex="1">
          <mxGeometry width="50" height="30" as="geometry">
            <mxRectangle width="50" height="30" as="alternateBounds" />
          </mxGeometry>
        </mxCell>
        <mxCell id="vEl4SPJRhOZtvg5Nzdzx-59" value="entity_id" style="shape=partialRectangle;connectable=0;fillColor=none;top=0;left=0;bottom=0;right=0;align=left;spacingLeft=6;overflow=hidden;whiteSpace=wrap;html=1;" parent="vEl4SPJRhOZtvg5Nzdzx-57" vertex="1">
          <mxGeometry x="50" width="150" height="30" as="geometry">
            <mxRectangle width="150" height="30" as="alternateBounds" />
          </mxGeometry>
        </mxCell>
        <mxCell id="vEl4SPJRhOZtvg5Nzdzx-60" value="" style="shape=tableRow;horizontal=0;startSize=0;swimlaneHead=0;swimlaneBody=0;fillColor=none;collapsible=0;dropTarget=0;points=[[0,0.5],[1,0.5]];portConstraint=eastwest;top=0;left=0;right=0;bottom=0;" parent="vEl4SPJRhOZtvg5Nzdzx-50" vertex="1">
          <mxGeometry y="120" width="200" height="30" as="geometry" />
        </mxCell>
        <mxCell id="vEl4SPJRhOZtvg5Nzdzx-61" value="int" style="shape=partialRectangle;connectable=0;fillColor=none;top=0;left=0;bottom=0;right=0;editable=1;overflow=hidden;whiteSpace=wrap;html=1;" parent="vEl4SPJRhOZtvg5Nzdzx-60" vertex="1">
          <mxGeometry width="50" height="30" as="geometry">
            <mxRectangle width="50" height="30" as="alternateBounds" />
          </mxGeometry>
        </mxCell>
        <mxCell id="vEl4SPJRhOZtvg5Nzdzx-62" value="related_user_id" style="shape=partialRectangle;connectable=0;fillColor=none;top=0;left=0;bottom=0;right=0;align=left;spacingLeft=6;overflow=hidden;whiteSpace=wrap;html=1;" parent="vEl4SPJRhOZtvg5Nzdzx-60" vertex="1">
          <mxGeometry x="50" width="150" height="30" as="geometry">
            <mxRectangle width="150" height="30" as="alternateBounds" />
          </mxGeometry>
        </mxCell>
        <mxCell id="vEl4SPJRhOZtvg5Nzdzx-67" value="" style="shape=tableRow;horizontal=0;startSize=0;swimlaneHead=0;swimlaneBody=0;fillColor=none;collapsible=0;dropTarget=0;points=[[0,0.5],[1,0.5]];portConstraint=eastwest;top=0;left=0;right=0;bottom=0;" parent="vEl4SPJRhOZtvg5Nzdzx-50" vertex="1">
          <mxGeometry y="150" width="200" height="30" as="geometry" />
        </mxCell>
        <mxCell id="vEl4SPJRhOZtvg5Nzdzx-68" value="varchar" style="shape=partialRectangle;connectable=0;fillColor=none;top=0;left=0;bottom=0;right=0;editable=1;overflow=hidden;whiteSpace=wrap;html=1;" parent="vEl4SPJRhOZtvg5Nzdzx-67" vertex="1">
          <mxGeometry width="50" height="30" as="geometry">
            <mxRectangle width="50" height="30" as="alternateBounds" />
          </mxGeometry>
        </mxCell>
        <mxCell id="vEl4SPJRhOZtvg5Nzdzx-69" value="action_type" style="shape=partialRectangle;connectable=0;fillColor=none;top=0;left=0;bottom=0;right=0;align=left;spacingLeft=6;overflow=hidden;whiteSpace=wrap;html=1;" parent="vEl4SPJRhOZtvg5Nzdzx-67" vertex="1">
          <mxGeometry x="50" width="150" height="30" as="geometry">
            <mxRectangle width="150" height="30" as="alternateBounds" />
          </mxGeometry>
        </mxCell>
        <mxCell id="vEl4SPJRhOZtvg5Nzdzx-70" value="" style="shape=tableRow;horizontal=0;startSize=0;swimlaneHead=0;swimlaneBody=0;fillColor=none;collapsible=0;dropTarget=0;points=[[0,0.5],[1,0.5]];portConstraint=eastwest;top=0;left=0;right=0;bottom=0;" parent="vEl4SPJRhOZtvg5Nzdzx-50" vertex="1">
          <mxGeometry y="180" width="200" height="30" as="geometry" />
        </mxCell>
        <mxCell id="vEl4SPJRhOZtvg5Nzdzx-71" value="text" style="shape=partialRectangle;connectable=0;fillColor=none;top=0;left=0;bottom=0;right=0;editable=1;overflow=hidden;whiteSpace=wrap;html=1;" parent="vEl4SPJRhOZtvg5Nzdzx-70" vertex="1">
          <mxGeometry width="50" height="30" as="geometry">
            <mxRectangle width="50" height="30" as="alternateBounds" />
          </mxGeometry>
        </mxCell>
        <mxCell id="vEl4SPJRhOZtvg5Nzdzx-72" value="previous_value" style="shape=partialRectangle;connectable=0;fillColor=none;top=0;left=0;bottom=0;right=0;align=left;spacingLeft=6;overflow=hidden;whiteSpace=wrap;html=1;" parent="vEl4SPJRhOZtvg5Nzdzx-70" vertex="1">
          <mxGeometry x="50" width="150" height="30" as="geometry">
            <mxRectangle width="150" height="30" as="alternateBounds" />
          </mxGeometry>
        </mxCell>
        <mxCell id="vEl4SPJRhOZtvg5Nzdzx-73" value="" style="shape=tableRow;horizontal=0;startSize=0;swimlaneHead=0;swimlaneBody=0;fillColor=none;collapsible=0;dropTarget=0;points=[[0,0.5],[1,0.5]];portConstraint=eastwest;top=0;left=0;right=0;bottom=0;" parent="vEl4SPJRhOZtvg5Nzdzx-50" vertex="1">
          <mxGeometry y="210" width="200" height="30" as="geometry" />
        </mxCell>
        <mxCell id="vEl4SPJRhOZtvg5Nzdzx-74" value="text" style="shape=partialRectangle;connectable=0;fillColor=none;top=0;left=0;bottom=0;right=0;editable=1;overflow=hidden;whiteSpace=wrap;html=1;" parent="vEl4SPJRhOZtvg5Nzdzx-73" vertex="1">
          <mxGeometry width="50" height="30" as="geometry">
            <mxRectangle width="50" height="30" as="alternateBounds" />
          </mxGeometry>
        </mxCell>
        <mxCell id="vEl4SPJRhOZtvg5Nzdzx-75" value="new_value" style="shape=partialRectangle;connectable=0;fillColor=none;top=0;left=0;bottom=0;right=0;align=left;spacingLeft=6;overflow=hidden;whiteSpace=wrap;html=1;" parent="vEl4SPJRhOZtvg5Nzdzx-73" vertex="1">
          <mxGeometry x="50" width="150" height="30" as="geometry">
            <mxRectangle width="150" height="30" as="alternateBounds" />
          </mxGeometry>
        </mxCell>
        <mxCell id="vEl4SPJRhOZtvg5Nzdzx-76" value="" style="shape=tableRow;horizontal=0;startSize=0;swimlaneHead=0;swimlaneBody=0;fillColor=none;collapsible=0;dropTarget=0;points=[[0,0.5],[1,0.5]];portConstraint=eastwest;top=0;left=0;right=0;bottom=0;" parent="vEl4SPJRhOZtvg5Nzdzx-50" vertex="1">
          <mxGeometry y="240" width="200" height="30" as="geometry" />
        </mxCell>
        <mxCell id="vEl4SPJRhOZtvg5Nzdzx-77" value="datetime" style="shape=partialRectangle;connectable=0;fillColor=none;top=0;left=0;bottom=0;right=0;editable=1;overflow=hidden;whiteSpace=wrap;html=1;" parent="vEl4SPJRhOZtvg5Nzdzx-76" vertex="1">
          <mxGeometry width="50" height="30" as="geometry">
            <mxRectangle width="50" height="30" as="alternateBounds" />
          </mxGeometry>
        </mxCell>
        <mxCell id="vEl4SPJRhOZtvg5Nzdzx-78" value="performed_at" style="shape=partialRectangle;connectable=0;fillColor=none;top=0;left=0;bottom=0;right=0;align=left;spacingLeft=6;overflow=hidden;whiteSpace=wrap;html=1;" parent="vEl4SPJRhOZtvg5Nzdzx-76" vertex="1">
          <mxGeometry x="50" width="150" height="30" as="geometry">
            <mxRectangle width="150" height="30" as="alternateBounds" />
          </mxGeometry>
        </mxCell>
        <mxCell id="vEl4SPJRhOZtvg5Nzdzx-63" value="" style="edgeStyle=entityRelationEdgeStyle;fontSize=12;html=1;endArrow=ERoneToMany;rounded=0;entryX=0;entryY=0.5;entryDx=0;entryDy=0;exitX=1;exitY=0.5;exitDx=0;exitDy=0;" parent="1" source="jzcKmIV3T17Fcgt4tWT3-2" target="vEl4SPJRhOZtvg5Nzdzx-57" edge="1">
          <mxGeometry width="100" height="100" relative="1" as="geometry">
            <mxPoint x="617" y="220" as="sourcePoint" />
            <mxPoint x="587" y="730" as="targetPoint" />
          </mxGeometry>
        </mxCell>
        <mxCell id="vEl4SPJRhOZtvg5Nzdzx-66" value="" style="edgeStyle=entityRelationEdgeStyle;fontSize=12;html=1;endArrow=ERoneToMany;rounded=0;entryX=1;entryY=0.5;entryDx=0;entryDy=0;" parent="1" target="vEl4SPJRhOZtvg5Nzdzx-60" edge="1">
          <mxGeometry width="100" height="100" relative="1" as="geometry">
            <mxPoint x="587" y="145" as="sourcePoint" />
            <mxPoint x="597" y="585" as="targetPoint" />
            <Array as="points">
              <mxPoint x="557" y="380" />
            </Array>
          </mxGeometry>
        </mxCell>
        <mxCell id="vEl4SPJRhOZtvg5Nzdzx-79" value="CombLogs" style="shape=table;startSize=30;container=1;collapsible=1;childLayout=tableLayout;fixedRows=1;rowLines=0;fontStyle=1;align=center;resizeLast=1;html=1;" parent="1" vertex="1">
          <mxGeometry x="673" y="140" width="200" height="150" as="geometry" />
        </mxCell>
        <mxCell id="vEl4SPJRhOZtvg5Nzdzx-80" value="" style="shape=tableRow;horizontal=0;startSize=0;swimlaneHead=0;swimlaneBody=0;fillColor=none;collapsible=0;dropTarget=0;points=[[0,0.5],[1,0.5]];portConstraint=eastwest;top=0;left=0;right=0;bottom=1;" parent="vEl4SPJRhOZtvg5Nzdzx-79" vertex="1">
          <mxGeometry y="30" width="200" height="30" as="geometry" />
        </mxCell>
        <mxCell id="vEl4SPJRhOZtvg5Nzdzx-81" value="PK" style="shape=partialRectangle;connectable=0;fillColor=none;top=0;left=0;bottom=0;right=0;fontStyle=1;overflow=hidden;whiteSpace=wrap;html=1;" parent="vEl4SPJRhOZtvg5Nzdzx-80" vertex="1">
          <mxGeometry width="50" height="30" as="geometry">
            <mxRectangle width="50" height="30" as="alternateBounds" />
          </mxGeometry>
        </mxCell>
        <mxCell id="vEl4SPJRhOZtvg5Nzdzx-82" value="combination_log_id" style="shape=partialRectangle;connectable=0;fillColor=none;top=0;left=0;bottom=0;right=0;align=left;spacingLeft=6;fontStyle=5;overflow=hidden;whiteSpace=wrap;html=1;" parent="vEl4SPJRhOZtvg5Nzdzx-80" vertex="1">
          <mxGeometry x="50" width="150" height="30" as="geometry">
            <mxRectangle width="150" height="30" as="alternateBounds" />
          </mxGeometry>
        </mxCell>
        <mxCell id="vEl4SPJRhOZtvg5Nzdzx-83" value="" style="shape=tableRow;horizontal=0;startSize=0;swimlaneHead=0;swimlaneBody=0;fillColor=none;collapsible=0;dropTarget=0;points=[[0,0.5],[1,0.5]];portConstraint=eastwest;top=0;left=0;right=0;bottom=0;" parent="vEl4SPJRhOZtvg5Nzdzx-79" vertex="1">
          <mxGeometry y="60" width="200" height="30" as="geometry" />
        </mxCell>
        <mxCell id="vEl4SPJRhOZtvg5Nzdzx-84" value="JSON" style="shape=partialRectangle;connectable=0;fillColor=none;top=0;left=0;bottom=0;right=0;editable=1;overflow=hidden;whiteSpace=wrap;html=1;" parent="vEl4SPJRhOZtvg5Nzdzx-83" vertex="1">
          <mxGeometry width="50" height="30" as="geometry">
            <mxRectangle width="50" height="30" as="alternateBounds" />
          </mxGeometry>
        </mxCell>
        <mxCell id="vEl4SPJRhOZtvg5Nzdzx-85" value="combination_response" style="shape=partialRectangle;connectable=0;fillColor=none;top=0;left=0;bottom=0;right=0;align=left;spacingLeft=6;overflow=hidden;whiteSpace=wrap;html=1;" parent="vEl4SPJRhOZtvg5Nzdzx-83" vertex="1">
          <mxGeometry x="50" width="150" height="30" as="geometry">
            <mxRectangle width="150" height="30" as="alternateBounds" />
          </mxGeometry>
        </mxCell>
        <mxCell id="vEl4SPJRhOZtvg5Nzdzx-89" value="" style="shape=tableRow;horizontal=0;startSize=0;swimlaneHead=0;swimlaneBody=0;fillColor=none;collapsible=0;dropTarget=0;points=[[0,0.5],[1,0.5]];portConstraint=eastwest;top=0;left=0;right=0;bottom=0;" parent="vEl4SPJRhOZtvg5Nzdzx-79" vertex="1">
          <mxGeometry y="90" width="200" height="30" as="geometry" />
        </mxCell>
        <mxCell id="vEl4SPJRhOZtvg5Nzdzx-90" value="int" style="shape=partialRectangle;connectable=0;fillColor=none;top=0;left=0;bottom=0;right=0;editable=1;overflow=hidden;whiteSpace=wrap;html=1;" parent="vEl4SPJRhOZtvg5Nzdzx-89" vertex="1">
          <mxGeometry width="50" height="30" as="geometry">
            <mxRectangle width="50" height="30" as="alternateBounds" />
          </mxGeometry>
        </mxCell>
        <mxCell id="vEl4SPJRhOZtvg5Nzdzx-91" value="related_user_id" style="shape=partialRectangle;connectable=0;fillColor=none;top=0;left=0;bottom=0;right=0;align=left;spacingLeft=6;overflow=hidden;whiteSpace=wrap;html=1;" parent="vEl4SPJRhOZtvg5Nzdzx-89" vertex="1">
          <mxGeometry x="50" width="150" height="30" as="geometry">
            <mxRectangle width="150" height="30" as="alternateBounds" />
          </mxGeometry>
        </mxCell>
        <mxCell id="vEl4SPJRhOZtvg5Nzdzx-92" value="" style="shape=tableRow;horizontal=0;startSize=0;swimlaneHead=0;swimlaneBody=0;fillColor=none;collapsible=0;dropTarget=0;points=[[0,0.5],[1,0.5]];portConstraint=eastwest;top=0;left=0;right=0;bottom=0;" parent="vEl4SPJRhOZtvg5Nzdzx-79" vertex="1">
          <mxGeometry y="120" width="200" height="30" as="geometry" />
        </mxCell>
        <mxCell id="vEl4SPJRhOZtvg5Nzdzx-93" value="datetime" style="shape=partialRectangle;connectable=0;fillColor=none;top=0;left=0;bottom=0;right=0;editable=1;overflow=hidden;whiteSpace=wrap;html=1;" parent="vEl4SPJRhOZtvg5Nzdzx-92" vertex="1">
          <mxGeometry width="50" height="30" as="geometry">
            <mxRectangle width="50" height="30" as="alternateBounds" />
          </mxGeometry>
        </mxCell>
        <mxCell id="vEl4SPJRhOZtvg5Nzdzx-94" value="created_at" style="shape=partialRectangle;connectable=0;fillColor=none;top=0;left=0;bottom=0;right=0;align=left;spacingLeft=6;overflow=hidden;whiteSpace=wrap;html=1;" parent="vEl4SPJRhOZtvg5Nzdzx-92" vertex="1">
          <mxGeometry x="50" width="150" height="30" as="geometry">
            <mxRectangle width="150" height="30" as="alternateBounds" />
          </mxGeometry>
        </mxCell>
        <mxCell id="vEl4SPJRhOZtvg5Nzdzx-95" value="" style="edgeStyle=entityRelationEdgeStyle;fontSize=12;html=1;endArrow=ERoneToMany;rounded=0;entryX=0;entryY=0.5;entryDx=0;entryDy=0;exitX=1;exitY=0.5;exitDx=0;exitDy=0;" parent="1" source="bpkwhLDXA1G38Zf4pE7G-87" target="vEl4SPJRhOZtvg5Nzdzx-89" edge="1">
          <mxGeometry width="100" height="100" relative="1" as="geometry">
            <mxPoint x="587" y="150" as="sourcePoint" />
            <mxPoint x="577" y="270" as="targetPoint" />
          </mxGeometry>
        </mxCell>
      </root>
    </mxGraphModel>
  </diagram>
</mxfile>
